<?xml version="1.0" standalone="no"?>
<!DOCTYPE svg PUBLIC "-//W3C//DTD SVG 1.1//EN" "http://www.w3.org/Graphics/SVG/1.1/DTD/svg11.dtd" >
<svg xmlns="http://www.w3.org/2000/svg">
<metadata></metadata>
<defs>
<font id="oratorregularitalic" horiz-adv-x="1269" >
<font-face units-per-em="2048" ascent="1638" descent="-410" />
<missing-glyph horiz-adv-x="500" />
<glyph horiz-adv-x="0" />
<glyph unicode="&#xd;" />
<glyph unicode=" " />
<glyph unicode="!" d="M532 -4l68 323h203l-68 -323h-203zM653 436l172 989h226l-254 -989h-144z" />
<glyph unicode="&#x22;" d="M612 1024q0 123 13.5 219t48.5 201h205q-14 -133 -58.5 -263t-113.5 -270l-89 2zM946 1024q0 123 13.5 219t48.5 201h202q-14 -133 -58 -263t-114 -270l-88 2z" />
<glyph unicode="#" d="M59 504l19 102h284l58 328h-285l19 100h284l123 684h103l-347 -1927h-104l131 713h-285zM596 -209l352 1927h103l-125 -684h286l-20 -100h-285l-57 -328h285l-19 -102h-285l-131 -713h-104z" />
<glyph unicode="$" d="M317 371l140 88q37 -78 55 -103q37 -47 100 -59l82 377q-94 29 -147 86q-61 66 -62 158q0 131 103 229q94 90 229 119l39 178h158l-39 -178q82 -8 148.5 -59.5t111.5 -129.5l-131 -98q-39 63 -64 88q-41 45 -94 57l-72 -342q111 -12 186 -79.5t75 -176.5 q0 -150 -122 -261t-274 -111l-37 -177h-157l37 177q-86 0 -162 67q-63 57 -103 150zM641 942q0 -80 84 -117l63 297q-55 -14 -101 -68.5t-46 -111.5zM770 297q61 0 131 52t70 112q0 70 -32 111.5t-99 56.5z" />
<glyph unicode="%" d="M176 47l954 1229q-51 -14 -92 -14q-49 0 -98 18l2 -57q0 -125 -87 -223.5t-210 -98.5q-86 0 -138 56.5t-52 142.5q0 133 87 238.5t216 105.5q47 0 186 -43q74 -23 117 -23q74 0 139.5 15.5t124.5 48.5l74 -45l-1102 -1422zM594 1112q0 -43 16.5 -69.5t57.5 -26.5 q63 0 104 78q35 67 35 139q0 41 -16.5 68.5t-55.5 27.5q-66 0 -103.5 -72.5t-37.5 -144.5zM621 176q0 133 85 237.5t214 104.5q92 0 141 -53t49 -146q0 -131 -87 -236.5t-214 -105.5q-90 0 -139 53.5t-49 145.5zM758 184q0 -43 16.5 -68.5t56.5 -25.5q66 0 107 78 q35 65 35 137q0 41 -16.5 68.5t-55.5 27.5q-70 0 -110 -77q-33 -61 -33 -140z" />
<glyph unicode="&#x26;" d="M295 233q0 94 49 173q57 92 221 198q-45 92 -51 109q-25 61 -25 116q0 150 100.5 260.5t248.5 110.5q100 0 166.5 -64.5t66.5 -166.5q0 -100 -57 -187q-70 -104 -252 -211l143 -274q35 39 59.5 93t43.5 114l141 -31q-57 -174 -176 -305l61 -123l-131 -84l-55 107 q-66 -45 -133.5 -70t-139.5 -25q-121 0 -200.5 70t-79.5 190zM457 260q0 -68 42 -103.5t113 -35.5q47 0 93.5 17.5t85.5 47.5l-162 312q-80 -49 -119 -97q-53 -63 -53 -141zM637 868q0 -41 22 -96q14 -35 46 -90q129 80 149 100q70 66 70 162q0 51 -33 82t-86 31 q-76 0 -122 -55.5t-46 -133.5z" />
<glyph unicode="'" d="M778 1024q0 123 13.5 219t48.5 201h202q-14 -133 -58 -263t-114 -270l-88 2z" />
<glyph unicode="(" d="M549 401q0 305 139 584t385 461l72 -90q-209 -170 -327 -430t-118 -533q0 -127 34 -242.5t110 -207.5l-109 -93q-96 102 -141 249t-45 302z" />
<glyph unicode=")" d="M399 -57q211 168 330 436q113 258 113 541q0 127 -34 234.5t-110 203.5l111 88q102 -109 149 -262q41 -133 41 -299q0 -295 -143 -577.5t-383 -457.5z" />
<glyph unicode="*" d="M510 1010l43 196l203 -20l-99 153l174 107l68 -197l152 197l127 -109l-160 -151l211 20l-43 -196l-203 18l98 -151l-174 -111l-67 201l-152 -201l-127 111l160 151zM815 1108q0 -27 10.5 -42t34.5 -15q18 0 42 19.5t24 37.5q0 23 -11.5 39t-33.5 16q-23 0 -44.5 -16 t-21.5 -39z" />
<glyph unicode="+" d="M66 715v102h518v520h102v-520h518v-102h-518v-518h-102v518h-518z" />
<glyph unicode="," d="M465 -6q80 45 115 141q14 37 43 184h204q-37 -178 -106.5 -272t-231.5 -178z" />
<glyph unicode="-" d="M496 483l32 144h480l-29 -144h-483z" />
<glyph unicode="." d="M532 -4l68 323h203l-68 -323h-203z" />
<glyph unicode="/" d="M266 -61l631 1656h107l-631 -1656h-107z" />
<glyph unicode="0" d="M322 319q0 100 30 246q23 96 33 144q66 287 82 335q61 190 154 283q119 117 319 117q158 0 236 -94q71 -86 71 -248q0 -78 -8 -136.5t-53 -254.5q-55 -248 -84 -332q-63 -188 -158 -283q-121 -121 -311 -121q-164 0 -237.5 89.5t-73.5 254.5zM487 319q0 -106 34 -152 t136 -46q49 0 88 10t74 39q100 78 187 436q76 311 75 492q0 109 -28 149q-37 53 -142 53q-184 0 -274 -217q-29 -66 -94 -374q-27 -125 -37 -193q-19 -113 -19 -197z" />
<glyph unicode="1" d="M227 -4l31 135h356l236 1110l-279 -98l-18 137l494 174l-281 -1323h303l-29 -135h-813z" />
<glyph unicode="2" d="M233 -4l29 133l668 680q90 90 125 143q57 88 57 181q0 78 -51 122.5t-131 44.5q-121 0 -209 -86q-76 -72 -119 -198l-147 20q72 195 190 295q133 113 328 113q131 0 217 -74t86 -203q0 -98 -41 -186q-49 -106 -195 -254l-583 -596h606l-31 -135h-799z" />
<glyph unicode="3" d="M244 -23l28 142q268 0 467 94q260 123 260 365q0 94 -81 141q-68 39 -168 39q-43 0 -69 -2t-124 -15l27 121l501 426h-583l30 137h793l-29 -135l-471 -395q141 0 234 -70q102 -78 102 -217q0 -319 -317 -491q-256 -139 -600 -140z" />
<glyph unicode="4" d="M299 352l449 1102l141 -41l-379 -926h375l151 723h152l-154 -723h113l-29 -135h-112l-74 -356h-152l74 356h-555z" />
<glyph unicode="5" d="M233 -23l29 142q283 0 473 90q254 121 254 377q0 86 -55 131t-146 45q-63 0 -125.5 -19.5t-123.5 -54.5h-111l160 737h733l-29 -137h-583l-93 -424q59 18 111.5 29.5t106.5 11.5q135 0 226 -77.5t91 -213.5q0 -332 -311 -501q-248 -135 -607 -136z" />
<glyph unicode="6" d="M334 338q0 217 59 448q72 281 201 451q158 207 373 207q86 0 161.5 -32t128.5 -95l-108 -125q-43 47 -92 76q-59 35 -113 35q-166 0 -266 -179q-53 -94 -117 -325q74 51 147.5 79.5t151.5 28.5q141 0 216 -83t75 -226q0 -244 -139 -424q-154 -199 -389 -199 q-154 0 -228 109q-61 92 -61 254zM487 348q0 -109 31 -160q41 -68 141 -67q158 0 250 151q80 131 80 297q0 96 -42 147.5t-136 51.5q-70 0 -154 -45q-51 -29 -135 -92q-16 -86 -25.5 -149.5t-9.5 -133.5z" />
<glyph unicode="7" d="M322 29l831 1259h-584l33 137h801l-959 -1458z" />
<glyph unicode="8" d="M291 274q0 166 108 285q86 92 260 174q-80 59 -118 115q-49 70 -49 153q0 176 134 308.5t312 132.5q131 0 214 -77t83 -208q0 -143 -94 -254q-74 -88 -221 -170q102 -59 147 -115q61 -74 61 -172q0 -197 -151.5 -334t-349.5 -137q-143 0 -236 76q-100 82 -100 223z M451 301q0 -82 61 -131t147 -49q125 0 217.5 85t92.5 210q0 78 -64 141q-23 25 -131 100q-137 -76 -168 -96q-139 -94 -155 -260zM651 1024q0 -63 51 -121q25 -27 107 -88q125 68 182 123q86 86 86 199q0 74 -45 118.5t-121 44.5q-115 0 -184 -81q-61 -72 -76 -195z" />
<glyph unicode="9" d="M311 104l111 123q41 -41 67 -61q61 -45 140 -45q164 0 266 178q63 109 115 324q-72 -51 -144.5 -80t-152.5 -29q-147 0 -218 80t-71 229q0 244 137 424q150 197 387 197q154 0 226 -105q61 -90 61 -249q0 -221 -57 -451q-70 -281 -201 -455q-156 -209 -373 -209 q-178 0 -293 129zM584 848q0 -92 44 -142.5t136 -50.5q70 0 151 43q49 27 136 93q16 86 25 149t9 131q0 109 -30 160q-41 70 -144 69q-156 0 -247 -153q-80 -133 -80 -299z" />
<glyph unicode=":" d="M532 -4l68 323h203l-68 -323h-203zM659 600l70 324h205l-70 -324h-205z" />
<glyph unicode=";" d="M465 -6q80 45 115 141q14 37 43 184h204q-37 -178 -106.5 -272t-231.5 -178zM680 602l70 324h204l-69 -324h-205z" />
<glyph unicode="&#x3c;" d="M201 766l811 774l57 -76l-721 -698l721 -698l-57 -74z" />
<glyph unicode="=" d="M66 573v103h1138v-103h-1138zM66 858v103h1138v-103h-1138z" />
<glyph unicode="&#x3e;" d="M201 68l721 698l-721 698l57 76l811 -774l-811 -772z" />
<glyph unicode="?" d="M467 1044q72 182 182 283q129 117 312 117q133 0 219 -69.5t86 -203.5q0 -162 -107 -280q-104 -94 -209 -186q-125 -113 -147 -240h-154q0 162 117 274q109 86 219 172q119 102 119 228q0 78 -45 121t-125 43q-119 0 -207 -93q-68 -72 -121 -202zM524 -4l68 323h203 l-68 -323h-203z" />
<glyph unicode="@" d="M141 424q0 350 248 674q266 346 606 346q195 0 317 -128t122 -327q0 -207 -119 -403q-137 -227 -330 -228q-57 0 -88 17.5t-70 68.5q-57 -39 -107 -62.5t-106 -23.5q-74 0 -117.5 40t-43.5 112q0 39 11 80t32 84q111 217 228.5 283.5t369.5 66.5h36q-47 -123 -94 -244 q-74 -197 -73 -229q0 -51 55 -51q109 2 188 186q66 154 66 281q0 152 -86 244t-236 92q-266 0 -469 -306q-182 -274 -182 -557q0 -160 90 -240.5t252 -80.5q141 0 311 78q51 25 174 88l23 -142q-135 -80 -274.5 -123t-286.5 -43q-205 0 -326 121t-121 326zM616 563 q0 -27 7.5 -44t29.5 -17q88 0 172 149q31 56 99 228q-27 -2 -52.5 -9.5t-58.5 -17.5q-49 -18 -123 -127t-74 -162z" />
<glyph unicode="A" d="M186 8l662 1417h178l59 -1417l-157 -41l-10 467h-379l-211 -467zM604 571h307l-16 641z" />
<glyph unicode="B" d="M252 -2l29 135h114l246 1157h-115l29 137h434q113 0 183.5 -78.5t70.5 -191.5q0 -115 -56.5 -215t-156.5 -151q147 -78 148 -244q0 -215 -123 -375q-133 -174 -342 -174h-461zM547 131h188q133 0 213 135q70 117 70 260q0 94 -51.5 136.5t-147.5 42.5h-151zM698 844h121 q127 0 196.5 84t69.5 213q0 90 -65 125q-45 24 -142 24h-8h-79z" />
<glyph unicode="C" d="M348 399q0 203 62 426q74 266 200 426q154 193 359 193q115 0 191.5 -62.5t111.5 -173.5l-142 -78q-23 76 -65 119q-51 51 -125 51q-209 0 -338 -360q-100 -281 -100 -543q0 -154 57 -223q45 -55 129 -55q82 0 162 57q51 37 127 123l106 -86q-94 -109 -186 -166 q-115 -72 -238 -72q-176 0 -251 129q-59 102 -60 295z" />
<glyph unicode="D" d="M246 -4l28 135h115l244 1157h-115l31 137h377q186 0 268 -86t82 -274q0 -240 -53 -455q-68 -270 -199 -426q-160 -188 -395 -188h-383zM541 131h112q43 0 85 8t81 27q131 63 223 397q76 274 76 479q0 117 -33 172q-43 74 -153 74h-148z" />
<glyph unicode="E" d="M326 -4l303 1429h698l-29 -137h-546l-99 -459h453l-29 -137h-452l-119 -561h549l-31 -135h-698z" />
<glyph unicode="F" d="M367 -4l303 1429h704l-28 -137h-555l-99 -459h465l-27 -137h-464l-148 -696h-151z" />
<glyph unicode="G" d="M358 391q0 199 62 422q74 268 198 432q152 199 351 199q113 0 191.5 -61.5t121.5 -172.5l-149 -82q-27 78 -72 121q-55 53 -129 54q-195 0 -320 -369q-96 -287 -96 -541q0 -123 33 -186q45 -88 156 -88q109 0 196 65l90 420h-266l29 137h417l-137 -639q-109 -59 -176 -86 q-100 -39 -194 -39q-168 0 -244 129q-61 104 -62 285z" />
<glyph unicode="H" d="M268 -4l303 1429h152l-127 -596h428l127 596h152l-304 -1429h-151l149 696h-430l-147 -696h-152z" />
<glyph unicode="I" d="M367 -4l28 135h193l243 1157h-190l29 137h534l-28 -137h-193l-246 -1157h195l-31 -135h-534z" />
<glyph unicode="J" d="M293 272q0 53 16.5 130t24.5 118h151q-12 -57 -25.5 -119.5t-13.5 -107.5q0 -80 40 -126t118 -46q100 0 174 88q63 76 86 184l219 1032h152l-223 -1048q-35 -172 -152 -283q-123 -119 -293 -119q-133 0 -203.5 81t-70.5 216z" />
<glyph unicode="K" d="M336 -4l303 1429h152l-125 -585h30l529 614l104 -78l-518 -602l311 -731l-141 -76l-301 735h-41l-152 -706h-151z" />
<glyph unicode="L" d="M352 -4l303 1429h150l-273 -1294h582l-31 -135h-731z" />
<glyph unicode="M" d="M207 -4l346 1429h182l76 -594l326 594h186l-260 -1429h-160l219 1163l-391 -702l-90 704l-276 -1165h-158z" />
<glyph unicode="N" d="M260 -4l303 1429h187l165 -1185q35 188 76 395q2 14 84 395q41 197 84 395h152l-303 -1429h-187l-166 1186q-39 -223 -73 -398q-12 -66 -84 -395q-43 -197 -86 -393h-152z" />
<glyph unicode="O" d="M340 344q0 211 55 438q70 283 191 455q147 209 354 209q158 0 229 -111q62 -94 62 -262q0 -209 -55 -436q-68 -281 -191 -453q-150 -209 -354 -209q-160 0 -232 109q-59 90 -59 260zM498 340q0 -102 28 -154q38 -67 133 -67h3q199 0 325 393q98 305 98 569q0 100 -34 154 q-42 65 -135 65h-3q-139 0 -243 -196q-80 -152 -131 -410q-41 -209 -41 -354z" />
<glyph unicode="P" d="M336 -4l303 1429h313q147 0 230 -59q96 -70 96 -215q0 -305 -191 -426q-152 -96 -466 -96l-134 -633h-151zM651 764l193 4q123 0 205 121q71 105 71 231q0 90 -54 129t-144 39h-160z" />
<glyph unicode="Q" d="M350 387q0 193 60 418q72 272 190 436q147 203 340 203q156 0 227 -144q55 -111 56 -282q0 -211 -68 -443q-74 -252 -192 -403l79 -125l-135 -94l-61 100q-47 -35 -102.5 -56.5t-112.5 -21.5q-156 0 -225 136q-55 106 -56 276zM506 377q0 -106 20 -164q33 -92 119 -92 q78 0 131 41l-135 217l135 96l107 -174q82 164 133 362.5t51 370.5q0 106 -27 172q-39 94 -131 94q-188 0 -309 -378q-94 -297 -94 -545z" />
<glyph unicode="R" d="M336 -4l303 1429l385 -2q111 0 182.5 -81.5t71.5 -194.5q0 -166 -94 -310.5t-246 -195.5l162 -610l-148 -64l-178 662h-153l-134 -633h-151zM651 764l201 2q125 0 203 125q65 104 65 235q0 88 -50 125t-138 37h-170z" />
<glyph unicode="S" d="M344 279l6 98l156 20l-6 -112q0 -166 166 -166q121 0 198 102q72 94 72 219q0 109 -105 193q-98 70 -196 141q-106 92 -107 213q0 174 124 315.5t296 141.5q141 0 211 -98q59 -84 60 -232l-152 -22q0 90 -27 141q-37 70 -120 70q-104 0 -171 -90.5t-67 -200.5 q0 -76 106 -156q98 -74 197 -145q109 -102 109 -230q0 -201 -127 -348q-133 -156 -332 -156q-147 0 -219 76t-72 226z" />
<glyph unicode="T" d="M530 1288l29 137h756l-29 -137h-299l-274 -1292h-152l275 1292h-306z" />
<glyph unicode="U" d="M346 246q0 113 49 354q35 168 103 449q80 326 90 376h149q-20 -104 -84.5 -366t-99.5 -436q-49 -246 -49 -355q0 -149 151 -149h2q113 0 181 80q55 66 82 190l219 1036h151l-231 -1081q-35 -164 -149.5 -266.5t-278.5 -102.5q-133 0 -209 69t-76 202z" />
<glyph unicode="V" d="M494 1421l159 33l64 -1053l516 1053l147 -33l-733 -1454h-39z" />
<glyph unicode="W" d="M324 -33l168 1456l157 31l-157 -1046l358 725h49l47 -727l293 1048l143 -31l-450 -1456h-70l-53 848l-416 -848h-69z" />
<glyph unicode="X" d="M195 31l528 743l-174 610l156 70l126 -526l353 526l125 -70l-437 -612l213 -743l-147 -62l-172 645l-449 -645z" />
<glyph unicode="Y" d="M487 1399l154 55l150 -717l456 717l125 -57q-68 -104 -182 -269q-164 -233 -203 -294q-104 -162 -158 -275q-2 -4 -57 -268q-16 -82 -63 -295h-150q41 195 82 389q35 170 35 176q0 8 -55 254q-68 291 -134 584z" />
<glyph unicode="Z" d="M211 -4l874 1292h-536l29 137h765l-872 -1294h612l-28 -135h-844z" />
<glyph unicode="[" d="M354 -86l324 1530h582l-29 -135h-432l-264 -1258h430l-29 -137h-582z" />
<glyph unicode="\" d="M266 1595h107l631 -1656h-107z" />
<glyph unicode="]" d="M299 -86l29 137h430l266 1258h-430l29 135h581l-323 -1530h-582z" />
<glyph unicode="^" d="M225 756l353 696h114l346 -696h-114l-289 581l-295 -581h-115z" />
<glyph unicode="_" d="M-6 -150h1282v-83h-1282v83z" />
<glyph unicode="`" d="M700 1346l113 141l336 -221l-80 -101z" />
<glyph unicode="a" d="M195 20l581 1094h189l118 -1094l-159 -53l-31 332h-387l-174 -332zM575 434h304l-48 494z" />
<glyph unicode="b" d="M252 -4l29 135h114l178 846h-114l30 137h353q145 0 229 -39q119 -55 119 -186q0 -96 -46 -175t-130 -126q63 -25 99 -79t36 -124q0 -180 -133 -289q-123 -100 -309 -100h-455zM547 131h160q125 0 196 47q86 57 86 178q0 70 -48 108t-120 38h-196zM653 639h154 q96 0 159.5 61.5t63.5 159.5q0 66 -44 91.5t-114 25.5h-147z" />
<glyph unicode="c" d="M332 354q0 283 135 510q162 270 424 271q123 0 194.5 -61.5t110.5 -182.5l-149 -70q-23 74 -64 117q-49 53 -119 53q-180 0 -289 -231q-88 -188 -88 -391q0 -115 37 -174q47 -76 154 -76q92 0 168 55q23 16 131 125l106 -86q-104 -115 -184 -166q-109 -70 -237 -70 q-170 0 -254 107q-76 96 -76 270z" />
<glyph unicode="d" d="M246 -4l28 135h115l178 846h-114l30 137h371q182 0 272 -65q102 -76 103 -250q0 -342 -133 -553q-158 -250 -475 -250h-375zM541 131l145 2q199 0 301 227q80 176 80 404q0 109 -48 161t-157 52h-143z" />
<glyph unicode="e" d="M326 -4l237 1118h699l-29 -137h-549l-68 -324h453l-29 -135h-452l-82 -387h549l-31 -135h-698z" />
<glyph unicode="f" d="M367 -4l237 1118h707l-29 -137h-555l-68 -324h465l-28 -135h-467l-111 -522h-151z" />
<glyph unicode="g" d="M340 362q0 279 139 506q162 264 426 265q111 0 193 -57.5t119 -162.5l-142 -79q-27 72 -80 114.5t-129 42.5q-178 0 -282 -235q-84 -188 -84 -394q0 -111 35 -167q45 -74 147 -74q55 0 110.5 14.5t106.5 40.5l59 285h-266l31 135h416l-105 -496q-82 -57 -177 -91 t-191 -34q-174 0 -254 109q-72 96 -72 278z" />
<glyph unicode="h" d="M268 -4l238 1118h151l-98 -461h428l98 461h152l-238 -1118h-151l110 522h-428l-110 -522h-152z" />
<glyph unicode="i" d="M401 -4l31 135h156l178 846h-156l29 137h465l-31 -137h-158l-178 -846h158l-29 -135h-465z" />
<glyph unicode="j" d="M291 240q0 43 5 81.5t17 96.5h152q-12 -53 -17.5 -84t-5.5 -72q0 -76 38 -109.5t114 -33.5q104 0 170.5 57t89.5 162l164 776h151l-172 -805q-31 -152 -151.5 -243t-278.5 -91q-135 0 -205.5 64.5t-70.5 200.5z" />
<glyph unicode="k" d="M336 -4l237 1118h152l-100 -473h47l487 502l96 -90l-469 -467l322 -523l-135 -98l-332 551h-43l-111 -520h-151z" />
<glyph unicode="l" d="M354 -4l238 1118h149l-206 -983h579l-31 -135h-729z" />
<glyph unicode="m" d="M199 -4l282 1118h193l96 -475l297 475h195l-193 -1118h-160l162 883l-373 -576l-120 578l-220 -885h-159z" />
<glyph unicode="n" d="M260 -4l238 1118h182l227 -932q25 174 60 350q27 133 127 582h151l-237 -1118h-183l-229 928q-25 -186 -57 -351q-23 -119 -127 -577h-152z" />
<glyph unicode="o" d="M328 338q0 279 131 514q156 281 413 281q160 0 236 -111q66 -96 66 -264q0 -276 -132 -506q-156 -274 -411 -275q-154 0 -234 107q-70 94 -69 254zM487 356q0 -102 33 -159q43 -76 139 -76q172 0 275 241q82 195 82 396q0 102 -33 160q-42 73 -136 73h-3 q-172 0 -275 -241q-82 -193 -82 -394z" />
<glyph unicode="p" d="M336 -4l237 1118h349q131 0 208 -49q96 -61 97 -184q0 -260 -209 -351q-133 -57 -428 -57l-103 -477h-151zM616 608h191q256 0 256 246q0 68 -51 95.5t-125 27.5h-191z" />
<glyph unicode="q" d="M330 340q0 279 131 512q158 281 411 281q160 0 236 -111q66 -96 66 -264q0 -154 -55.5 -327t-147.5 -281l100 -117l-115 -101l-100 115q-109 -70 -225 -70q-154 0 -232 109q-70 96 -69 254zM487 354q0 -102 33 -159q43 -74 137 -74q61 0 111 24l-147 168l114 105 l146 -164q61 102 98 241.5t37 260.5q0 104 -33 162q-42 73 -136 73h-3q-172 0 -275 -241q-82 -193 -82 -396z" />
<glyph unicode="r" d="M309 -2l238 1118h379q131 0 200 -53q80 -61 80 -191q0 -123 -89 -232.5t-210 -143.5l176 -449l-147 -78l-176 504h-201l-98 -475h-152zM590 606h180q109 0 191.5 71t82.5 175q0 63 -41.5 94t-109.5 31h-225z" />
<glyph unicode="s" d="M338 313l143 43q0 -115 35 -168q44 -69 151 -69h3q100 0 174 63.5t74 163.5q0 94 -218.5 185.5t-218.5 236.5q0 156 120 261.5t280 105.5q139 0 210.5 -74t71.5 -215l-151 -41q0 86 -39 136t-123 50q-88 0 -149.5 -49t-61.5 -137q0 -76 217 -172t217 -264 q0 -164 -132 -278t-300 -114q-158 0 -230.5 88.5t-72.5 247.5z" />
<glyph unicode="t" d="M465 977l29 137h755l-28 -137h-299l-209 -981h-152l209 981h-305z" />
<glyph unicode="u" d="M338 233q0 82 37 263q27 131 78 340q66 268 67 278h152q-12 -59 -68 -276q-47 -182 -72 -312q-34 -171 -34 -268v-6q0 -74 37.5 -103.5t111.5 -29.5q123 0 180.5 55t83.5 180l162 760h152l-178 -827q-31 -145 -147 -227.5t-269 -82.5q-135 0 -214 61.5t-79 194.5z" />
<glyph unicode="v" d="M422 1090l158 53l125 -807l471 807l131 -56l-664 -1120h-31z" />
<glyph unicode="w" d="M344 -33l86 1157l158 19l-78 -764l295 528h43l70 -530l251 766l148 -19l-406 -1157h-55l-86 676l-371 -676h-55z" />
<glyph unicode="x" d="M215 43l459 545l-213 477l155 78l170 -420l353 420l121 -80l-414 -475l225 -545l-149 -76l-191 488l-397 -488z" />
<glyph unicode="y" d="M426 1069l158 74l174 -568l413 568l125 -74q-31 -41 -164 -201.5t-190 -234.5q-98 -129 -141 -207q-2 -4 -44 -201.5t-48 -228.5h-152l92 432z" />
<glyph unicode="z" d="M209 -4l788 981h-514l29 137h766l-782 -983h587l-28 -135h-846z" />
<glyph unicode="{" d="M442 647q61 14 123 31q72 23 107 63q57 72 84.5 280t79.5 286q92 137 327 137h125l-14 -64q-254 0 -328 -151q-20 -43 -57 -316q-27 -201 -156 -268q61 -39 62 -113q0 -84 -45 -247.5t-45 -249.5q2 -74 73 -103q49 -18 142 -18h43l-13 -61h-76q-152 0 -215 26 q-104 43 -104 172q0 74 27 176q59 229 59 295t-72 94q-92 23 -127 31z" />
<glyph unicode="|" d="M584 -618v2310h102v-2310h-102z" />
<glyph unicode="}" d="M258 -147l12 61q254 0 328 149q20 39 57 314q29 201 158 272q-31 20 -46 53t-15 74q0 63 61 299q29 109 29 185q0 78 -72 104q-49 18 -145 18h-45l16 62h74q139 0 209 -27q111 -43 110 -160q0 -80 -24 -180q-60 -244 -60 -303q0 -8 5 -26.5t5 -26.5q20 -23 97.5 -44.5 t89.5 -27.5q-59 -14 -117 -28q-78 -23 -102 -50q-57 -59 -87 -273t-83 -296q-96 -150 -330 -149h-125z" />
<glyph unicode="~" d="M55 643q66 117 127 176q88 86 193 86q94 0 266 -80t246 -80q80 0 149 64q51 47 103 137l75 -55q-51 -102 -133 -170q-94 -78 -196 -78q-86 0 -254 80t-260 80q-82 0 -148 -72q-31 -35 -94 -143z" />
<glyph d="M-2 768q0 141 65 236q76 109 213 108q90 0 164 -45q88 -53 195 -207q76 115 147 174q96 78 211 78q139 0 213 -106q66 -94 66 -238q0 -143 -66 -238q-76 -109 -213 -108q-90 0 -164 45q-88 53 -194 207q-76 -117 -148 -174q-96 -78 -211 -78q-139 0 -213 106 q-66 94 -65 240zM100 756q0 -96 39 -162q47 -78 137 -78q86 0 175 84q49 47 127 158q-53 96 -119 160q-86 84 -176 83q-96 0 -144 -77q-39 -63 -39 -168zM694 766q76 -104 127 -154q92 -88 172 -88q90 0 137 82q39 70 39 168q0 96 -41 160q-49 76 -141 76q-70 0 -135 -49 q-80 -59 -158 -195z" />
<glyph d="M199 920l811 620l59 -82l-707 -538l707 -537l-59 -82zM201 -4v102h866v-102h-866z" />
<glyph horiz-adv-x="1318" />
<glyph unicode="&#xa1;" d="M510 -4l250 987h143l-168 -987h-225zM756 1102l69 323h203l-70 -323h-202z" />
<glyph unicode="&#xa2;" d="M367 526q0 254 116 465q133 242 363 297l35 156h149l-33 -154q88 -12 152 -82q53 -59 82 -153l-150 -74q-16 51 -44.5 94t-71.5 64l-179 -848q61 16 123 67q45 37 101 103l106 -86q-80 -94 -160 -150q-98 -68 -202 -84l-35 -164h-152l37 168q-129 29 -188 142 q-49 92 -49 239zM522 530q0 -80 25.5 -143t89.5 -92l176 842q-139 -51 -221 -258q-70 -174 -70 -349z" />
<glyph unicode="&#xa3;" d="M289 80q164 211 178 235q78 129 78 283l-2 131h-226l29 135h189q-4 33 -6.5 63.5t-2.5 73.5q0 184 137.5 313.5t325.5 129.5q125 0 206 -65.5t112 -188.5l-148 -49q-20 82 -67.5 125t-128.5 43q-133 0 -208 -92.5t-75 -229.5l6 -123h391l-28 -135h-353l6 -149 q0 -111 -47 -211q-35 -72 -118 -183q33 6 65.5 10.5t67.5 4.5q49 0 123.5 -40t109.5 -44q49 2 103 37q4 2 51 43l69 -103q-80 -59 -118 -80q-72 -39 -140 -39q-43 0 -96 25q-127 57 -168 57q-47 0 -106.5 -16t-151.5 -66z" />
<glyph unicode="&#xa4;" d="M14 227l232 230q-47 66 -76 148.5t-29 162.5q0 158 107 309l-234 230l78 73l230 -227q137 109 313 109q178 0 313 -111l230 229l77 -73l-233 -230q51 -70 78.5 -149.5t27.5 -161.5q0 -168 -106 -309l233 -230l-77 -73l-230 229q-135 -111 -313 -111q-172 0 -313 111 l-230 -229zM233 766q0 -170 116 -285.5t286 -115.5q172 0 286.5 114.5t114.5 286.5q0 170 -115.5 287.5t-285.5 117.5t-286 -117.5t-116 -287.5z" />
<glyph unicode="&#xa5;" d="M369 565l28 135h258l-168 699l154 55l150 -717l456 717l127 -57l-459 -697h256l-30 -135h-312l-120 -569h-152l121 569h-309z" />
<glyph unicode="&#xa6;" d="M584 158h102v-776h-102v776zM584 915v777h102v-777h-102z" />
<glyph unicode="&#xa7;" d="M334 262l162 53q0 -88 51 -145t139 -57q82 0 144.5 49t62.5 127q0 76 -212 187.5t-212 236.5q0 78 43 148.5t113 115.5q-51 57 -52 135q0 141 118 236.5t263 95.5q104 0 179 -61.5t100 -163.5l-148 -58q-12 70 -53 109t-108 39q-59 0 -124 -43t-65 -101q0 -45 25 -78 q16 -23 61 -55q100 -57 201 -114q121 -86 121 -179q0 -76 -46 -143.5t-118 -116.5q76 -66 76 -155q0 -152 -135 -254q-125 -94 -281 -95q-125 0 -215 82t-90 205zM627 745q0 -25 16 -47q35 -41 111 -84q63 -35 127 -67q31 23 62.5 62.5t31.5 68.5q0 61 -55 115 q-17 14 -195 118q-45 -37 -68 -71q-31 -47 -30 -95z" />
<glyph unicode="&#xa8;" d="M608 1276q0 63 39 119.5t101 56.5q41 0 60 -28.5t19 -71.5q0 -66 -34 -117q-41 -59 -103 -59q-43 0 -62.5 28.5t-19.5 71.5zM997 1276q0 63 39 119.5t103 56.5q41 0 60.5 -28.5t19.5 -71.5q0 -61 -37 -115q-43 -61 -101 -61q-43 0 -63.5 28.5t-20.5 71.5z" />
<glyph unicode="&#xa9;" d="M131 537q0 332 236 612q248 295 575 295q229 0 369 -166q129 -153 129 -389q0 -334 -234 -615q-246 -297 -573 -297q-229 0 -371 168q-131 156 -131 392zM250 567q0 -188 106 -325q117 -150 301 -150q258 0 465 254q197 242 197 508q0 188 -105 326q-113 150 -294 149 q-270 0 -476 -250q-194 -238 -194 -512zM453 604q0 201 122 363q133 176 328 176q123 0 184 -84q53 -74 54 -201h-115q0 78 -31 119q-37 49 -112 49q-147 0 -236 -133q-78 -117 -78 -272q0 -98 44 -158t139 -60q82 0 135 49.5t80 131.5h114q-37 -123 -134 -208t-220 -85 q-133 0 -203.5 88t-70.5 225z" />
<glyph unicode="&#xab;" d="M223 705l656 516l82 -113l-523 -406l348 -409l-127 -111zM698 705l656 516l84 -113l-523 -406l349 -409l-129 -111z" />
<glyph unicode="&#xac;" d="M66 858v103h1138v-596h-102v493h-1036z" />
<glyph unicode="&#xad;" d="M66 715v102h1138v-102h-1138z" />
<glyph unicode="&#xae;" d="M125 532q0 336 237 613q250 291 580 291q231 0 371 -164q133 -156 133 -391q0 -332 -238 -611q-250 -293 -575 -293q-231 0 -369.5 159.5t-138.5 395.5zM244 563q0 -197 106 -330q115 -143 307 -143q272 0 478 256q192 239 192 520q0 180 -115 314q-121 141 -297 141 q-266 0 -473 -248q-199 -238 -198 -510zM459 299l174 819h311q92 0 148 -31q70 -39 69 -124q0 -123 -76.5 -206t-197.5 -83l137 -375h-135l-123 375h-113l-78 -375h-116zM678 788h188q80 0 125 31q53 37 53 113q0 45 -34.5 58.5t-87.5 13.5h-199z" />
<glyph unicode="&#xaf;" d="M592 1243l26 137h619l-27 -137h-618z" />
<glyph unicode="&#xb0;" d="M221 1169q0 170 121 293t293 123q170 0 292 -122t122 -294t-119 -292.5t-293 -120.5t-295 120.5t-121 292.5zM317 1161q0 -131 96.5 -220t229.5 -89q127 0 217 94t90 223q0 131 -92 223.5t-225 92.5q-135 0 -225.5 -94.5t-90.5 -229.5z" />
<glyph unicode="&#xb1;" d="M66 96v103h1138v-103h-1138zM66 815v103h518v520h102v-520h518v-103h-518v-518h-102v518h-518z" />
<glyph unicode="&#xb2;" d="M545 702l18 97q123 109 246 219q195 180 195 223q0 41 -17.5 63.5t-58.5 22.5q-57 0 -95 -38t-59 -99l-125 16q31 106 113 172t190 66q80 0 136.5 -38t56.5 -114q0 -127 -227 -329q-86 -74 -170 -146h301l-25 -115h-479z" />
<glyph unicode="&#xb3;" d="M551 702l20 115q133 0 232 29q152 45 151 143q0 49 -34.5 71.5t-88.5 22.5q-27 0 -59.5 -4t-60.5 -8l20 90l221 168h-280l24 115h480l-21 -96l-211 -160q59 0 105.5 -48t46.5 -110q0 -152 -156 -248q-133 -82 -297 -82z" />
<glyph unicode="&#xb4;" d="M684 1268l430 219l51 -144l-442 -178z" />
<glyph unicode="&#xb5;" d="M178 -455l332 1569h152q-14 -68 -76 -301q-90 -342 -90 -516q0 -78 39.5 -127t117.5 -49q111 0 191 98q66 82 92 203l147 692h152l-238 -1118h-151l18 84q-49 -47 -107.5 -75t-121.5 -28q-59 0 -110.5 24t-82.5 73l-114 -529h-150z" />
<glyph unicode="&#xb6;" horiz-adv-x="1361" d="M180 1038q0 197 125 302.5t326 105.5h469v-111h-70v-1677h-117v1677h-295v-1677h-118l2 995q-147 23 -234.5 128.5t-87.5 256.5z" />
<glyph unicode="&#xb7;" d="M524 772q0 49 33 78t82 29q47 0 76.5 -32t29.5 -81t-32.5 -80t-81.5 -31q-47 0 -77 34t-30 83z" />
<glyph unicode="&#xb8;" d="M373 -344l69 115q35 -18 73 -30.5t75 -12.5q35 0 53.5 10t18.5 26q0 47 -78 56.5t-92 9.5l116 203h137l-63 -119q29 0 51 -8q90 -25 90 -113q0 -86 -76.5 -143.5t-166.5 -57.5q-51 0 -97.5 15.5t-109.5 48.5z" />
<glyph unicode="&#xb9;" d="M584 702l22 115h158l98 473l-137 -43l-18 105l329 102l-137 -637h123l-23 -115h-415z" />
<glyph unicode="&#xbb;" d="M129 295l522 407l-348 408l129 111l436 -519l-655 -520zM606 295l522 407l-348 408l127 111l436 -519l-653 -520z" />
<glyph unicode="&#xbc;" d="M174 27l1108 1427l104 -65l-1105 -1422zM233 702l23 115h158l98 473l-137 -43l-19 105l330 102l-137 -637h123l-23 -115h-416zM735 162l246 577l125 -22l-191 -441h148l74 347h135l-74 -347h59l-22 -114h-59l-37 -166h-135l34 166h-303z" />
<glyph unicode="&#xbd;" d="M182 27l1108 1427l105 -65l-1104 -1422zM248 702l22 115h158l98 473l-137 -43l-18 105l329 102l-137 -637h123l-22 -115h-416zM702 -4l21 96q154 137 307 277q133 131 133 166q0 41 -18.5 64.5t-59.5 23.5q-59 0 -96 -39t-55 -101l-127 15q31 111 110.5 174t192.5 63 q82 0 137.5 -38t55.5 -115q0 -117 -220 -318q-88 -78 -176 -153h299l-24 -115h-480z" />
<glyph unicode="&#xbe;" d="M176 27l1108 1427l105 -65l-1106 -1422zM231 705l23 114q133 0 229 29q152 45 152 141q0 49 -35 71.5t-88 22.5q-27 0 -59.5 -4t-63.5 -8l21 90l223 168h-281l25 115h477l-20 -96l-211 -160q59 0 106 -47t47 -111q0 -147 -160 -244q-139 -84 -299 -84zM737 162l246 577 l125 -22l-190 -441h147l74 347h135l-74 -347h60l-23 -114h-59l-37 -166h-135l34 166h-303z" />
<glyph unicode="&#xbf;" d="M305 248q0 170 105 287q102 90 206 180q125 111 152 241h154q-43 -193 -162 -305q-98 -78 -197 -153q-96 -86 -96 -217q0 -76 45 -119t123 -43q119 0 209 92q72 74 121 203l141 -37q-59 -176 -182 -283q-137 -119 -314 -119q-137 0 -217 66q-88 72 -88 207zM774 1102 l70 323h205l-72 -323h-203z" />
<glyph unicode="&#xc0;" d="M186 8l662 1417h178l59 -1417l-157 -41l-10 467h-379l-211 -467zM604 571h307l-16 641zM700 1655l113 141l336 -219l-80 -100z" />
<glyph unicode="&#xc1;" d="M186 8l662 1417h178l59 -1417l-157 -41l-10 467h-379l-211 -467zM604 571h307l-16 641zM684 1579l430 219l51 -143l-442 -178z" />
<glyph unicode="&#xc2;" d="M184 8l664 1417h178l59 -1417l-157 -41l-10 467h-379l-211 -467zM571 1563l373 221l283 -221l-72 -84l-244 133l-299 -133zM604 571h307l-16 641z" />
<glyph unicode="&#xc3;" d="M186 8l662 1417h178l61 -1417l-159 -41l-10 467h-379l-211 -467zM563 1528q63 109 101 149q72 78 155 78q45 0 94 -37q113 -86 129 -86q37 0 72 49q16 23 45 84l111 -36q-53 -109 -94 -156q-68 -76 -160 -76q-49 0 -98 37q-111 84 -127 84q-37 0 -76 -49q-18 -23 -51 -84 zM606 571h307l-18 641z" />
<glyph unicode="&#xc4;" d="M186 8l662 1417h178l61 -1417l-159 -41l-10 467h-379l-211 -467zM606 571h307l-18 641zM608 1587q0 63 39 119.5t101 56.5q45 1 61 -28q20 -35 20 -72q0 -51 -24 -100q-20 -31 -50 -53.5t-65 -22.5q-43 0 -62.5 28.5t-19.5 71.5zM999 1589q0 63 38 118.5t100 55.5 q43 0 63.5 -28.5t20.5 -71.5q0 -59 -39 -115q-45 -63 -103 -63q-43 0 -61.5 27.5t-18.5 76.5z" />
<glyph unicode="&#xc5;" d="M184 8l664 1417h178l59 -1417l-157 -41l-10 467h-379l-211 -467zM604 571h307l-16 641zM707 1540q0 88 73.5 157.5t161.5 69.5q68 0 111 -40.5t43 -110.5q0 -90 -70 -157.5t-162 -67.5q-66 0 -111.5 42t-45.5 107zM805 1577q0 -41 18.5 -67.5t57.5 -26.5q35 0 75.5 30.5 t40.5 63.5q0 39 -17 67.5t-56 28.5q-33 0 -76 -31.5t-43 -64.5z" />
<glyph unicode="&#xc6;" d="M86 8l659 1417h637l-28 -137h-334l-98 -459h309l-29 -137h-307l-119 -561h334l-31 -135h-483l92 438h-246l-213 -467zM502 571h217l151 717h-51z" />
<glyph unicode="&#xc7;" d="M348 399q0 203 62 426q74 266 200 426q154 193 359 193q115 0 191.5 -62.5t111.5 -173.5l-142 -78q-23 76 -65 119q-51 51 -125 51q-209 0 -338 -360q-100 -281 -100 -543q0 -154 57 -223q45 -55 129 -55q82 0 162 57q51 37 127 123l106 -86q-94 -109 -186 -166 q-115 -72 -238 -72q-176 0 -251 129q-59 102 -60 295zM371 -342l69 115q35 -18 73 -30.5t75 -12.5q35 0 53 10t18 27q0 47 -77.5 56t-92.5 9l117 203h137l-63 -119q29 0 51 -8q90 -25 90 -113q0 -86 -76.5 -143.5t-166.5 -57.5q-51 0 -97.5 15.5t-109.5 48.5z" />
<glyph unicode="&#xc8;" d="M326 -4l303 1429h698l-29 -137h-546l-99 -459h453l-29 -137h-452l-119 -561h549l-31 -135h-698zM700 1655l113 141l336 -219l-80 -100z" />
<glyph unicode="&#xc9;" d="M326 -4l303 1429h698l-29 -137h-546l-99 -459h453l-29 -137h-452l-119 -561h549l-31 -135h-698zM684 1579l430 219l51 -143l-442 -178z" />
<glyph unicode="&#xca;" d="M326 -4l303 1429h698l-29 -137h-546l-99 -459h453l-29 -137h-452l-119 -561h549l-31 -135h-698zM573 1563l371 221l283 -221l-72 -84l-244 133l-299 -133z" />
<glyph unicode="&#xcb;" d="M326 -4l303 1429h698l-29 -137h-546l-99 -459h453l-29 -137h-452l-119 -561h549l-31 -135h-698zM608 1587q0 63 39 119.5t101 56.5q41 0 60 -28.5t19 -71.5q0 -66 -34 -117q-41 -59 -103 -59q-43 0 -62.5 28.5t-19.5 71.5zM997 1587q0 63 39 119.5t103 56.5 q41 0 60.5 -28.5t19.5 -71.5q0 -61 -37 -115q-43 -61 -101 -61q-43 0 -63.5 28.5t-20.5 71.5z" />
<glyph unicode="&#xcc;" d="M367 -4l28 135h193l243 1157h-190l29 137h534l-28 -137h-193l-246 -1157h195l-31 -135h-534zM700 1655l113 141l336 -219l-80 -100z" />
<glyph unicode="&#xcd;" d="M367 -4l28 135h193l243 1157h-190l29 137h534l-28 -137h-193l-246 -1157h195l-31 -135h-534zM684 1579l430 219l51 -143l-442 -178z" />
<glyph unicode="&#xce;" d="M365 -4l28 135h191l247 1157h-190l29 137h534l-28 -137h-193l-246 -1157h195l-31 -135h-536zM571 1563l373 221l283 -221l-72 -84l-244 133l-299 -133z" />
<glyph unicode="&#xcf;" d="M367 -4l28 135h193l246 1157h-191l27 137h536l-28 -137h-193l-246 -1157h195l-33 -135h-534zM608 1587q0 63 39 119.5t101 56.5q45 1 61 -28q20 -35 20 -72q0 -51 -24 -100q-20 -31 -50 -53.5t-65 -22.5q-43 0 -62.5 28.5t-19.5 71.5zM999 1587q0 66 38 121t100 55 q43 0 63.5 -28.5t20.5 -71.5q0 -59 -41 -117.5t-101 -58.5q-41 0 -60.5 28.5t-19.5 71.5z" />
<glyph unicode="&#xd0;" d="M246 -4l28 135h115l107 510h-115l29 137h114l109 510h-115l31 137h377q186 0 268 -86t82 -274q0 -240 -53 -455q-68 -270 -199 -426q-160 -188 -395 -188h-383zM541 131h112q43 0 85 8t81 27q131 63 223 397q76 274 76 479q0 117 -33 172q-43 74 -153 74h-148l-108 -510 h168l-29 -137h-168z" />
<glyph unicode="&#xd1;" d="M260 -4l303 1429h187l165 -1185q35 188 76 395q2 14 84 395q41 197 84 395h152l-303 -1429h-187l-166 1186q-39 -223 -73 -398q-12 -66 -84 -395q-43 -197 -86 -393h-152zM561 1526q43 78 72 114q84 113 186 113q47 0 96 -37q115 -86 127 -86q37 0 72 49q16 23 45 84 l109 -37q-53 -106 -92 -153q-68 -78 -154 -78q-53 0 -104 37q-115 84 -127 84q-37 0 -76 -49q-18 -23 -51 -84z" />
<glyph unicode="&#xd2;" d="M340 344q0 211 55 438q70 283 191 455q147 209 354 209q158 0 229 -111q62 -94 62 -262q0 -209 -55 -436q-68 -281 -191 -453q-150 -209 -354 -209q-160 0 -232 109q-59 90 -59 260zM498 340q0 -102 28 -154q39 -68 136 -67q199 0 325 393q98 305 98 569q0 100 -34 154 q-43 66 -138 65q-139 0 -243 -196q-80 -152 -131 -410q-41 -209 -41 -354zM700 1655l113 141l336 -219l-80 -100z" />
<glyph unicode="&#xd3;" d="M340 344q0 211 55 438q70 283 191 455q147 209 354 209q158 0 229 -111q62 -94 62 -262q0 -209 -55 -436q-68 -281 -191 -453q-150 -209 -354 -209q-160 0 -232 109q-59 90 -59 260zM498 340q0 -102 28 -154q39 -68 136 -67q199 0 325 393q98 305 98 569q0 100 -34 154 q-43 66 -138 65q-139 0 -243 -196q-80 -152 -131 -410q-41 -209 -41 -354zM684 1579l430 219l51 -143l-442 -178z" />
<glyph unicode="&#xd4;" d="M340 344q0 211 55 438q70 283 191 455q147 209 354 209q158 0 229 -111q62 -94 62 -262q0 -209 -55 -436q-68 -281 -191 -453q-150 -209 -354 -209q-160 0 -232 109q-59 90 -59 260zM498 340q0 -102 28 -154q39 -68 136 -67q199 0 325 393q98 305 98 569q0 100 -34 154 q-43 66 -138 65q-139 0 -243 -196q-80 -152 -131 -410q-41 -209 -41 -354zM573 1563l371 221l283 -221l-72 -84l-244 133l-299 -133z" />
<glyph unicode="&#xd5;" d="M340 344q0 211 55 438q70 283 191 455q147 209 354 209q158 0 229 -111q62 -94 62 -262q0 -209 -55 -436q-68 -281 -191 -453q-150 -209 -354 -209q-160 0 -232 109q-59 90 -59 260zM498 340q0 -102 28 -154q39 -68 136 -67q199 0 325 393q98 305 98 569q0 100 -34 154 q-43 66 -138 65q-139 0 -243 -196q-80 -152 -131 -410q-41 -209 -41 -354zM561 1528q43 78 72 114q84 113 186 113q47 0 96 -37q115 -86 127 -86q37 0 72 49q16 23 45 84l109 -36q-53 -106 -92 -154q-68 -78 -154 -78q-53 0 -104 37q-115 84 -127 84q-37 0 -76 -49 q-18 -23 -51 -84z" />
<glyph unicode="&#xd6;" d="M340 344q0 211 55 438q70 283 191 455q147 209 354 209q158 0 229 -111q62 -94 62 -262q0 -209 -55 -436q-68 -281 -191 -453q-150 -209 -354 -209q-160 0 -232 109q-59 90 -59 260zM498 340q0 -102 28 -154q39 -68 136 -67q199 0 325 393q98 305 98 569q0 100 -34 154 q-43 66 -138 65q-139 0 -243 -196q-80 -152 -131 -410q-41 -209 -41 -354zM608 1587q0 63 39 119.5t101 56.5q41 0 60 -28.5t19 -71.5q0 -66 -34 -117q-41 -59 -103 -59q-43 0 -62.5 28.5t-19.5 71.5zM997 1587q0 63 39 119.5t103 56.5q41 0 60.5 -28.5t19.5 -71.5 q0 -61 -37 -115q-43 -61 -101 -61q-43 0 -63.5 28.5t-20.5 71.5z" />
<glyph unicode="&#xd7;" d="M63 268l500 498l-500 502l72 71l500 -499l500 499l71 -71l-499 -502l499 -498l-71 -73l-500 499l-500 -499z" />
<glyph unicode="&#xd8;" d="M203 47l155 209l-6 94q0 205 58 438q70 281 190 449q150 207 354 207q68 0 126.5 -25.5t97.5 -77.5l92 121l108 -61l-143 -189q4 -25 6 -73.5t2 -71.5q0 -203 -57 -434q-70 -285 -189 -449q-150 -207 -352 -207q-160 0 -244 136l-96 -125zM514 262q10 -68 51 -104.5 t111 -36.5q199 0 313 366q66 205 101 539zM518 467l557 737q-18 45 -58 70.5t-91 25.5q-131 0 -230 -165q-76 -131 -127 -353q-33 -141 -51 -315z" />
<glyph unicode="&#xd9;" d="M346 246q0 113 49 354q35 168 103 449q80 326 90 376h149q-20 -104 -84.5 -366t-99.5 -436q-49 -246 -49 -355q0 -150 153 -149q113 0 181 80q55 66 82 190l219 1036h151l-231 -1081q-35 -164 -149.5 -266.5t-278.5 -102.5q-133 0 -209 69t-76 202zM702 1655l113 141 l336 -219l-80 -100z" />
<glyph unicode="&#xda;" d="M346 246q0 113 49 354q35 168 103 449q80 326 90 376h149q-20 -104 -84.5 -366t-99.5 -436q-49 -246 -49 -355q0 -150 153 -149q113 0 181 80q55 66 82 190l219 1036h151l-231 -1081q-35 -164 -149.5 -266.5t-278.5 -102.5q-133 0 -209 69t-76 202zM686 1579l430 219 l51 -143l-442 -178z" />
<glyph unicode="&#xdb;" d="M346 246q0 113 49 354q35 168 103 449q80 326 90 376h149q-20 -104 -84.5 -366t-99.5 -436q-49 -246 -49 -355q0 -150 153 -149q113 0 181 80q55 66 82 190l219 1036h151l-231 -1081q-35 -164 -149.5 -266.5t-278.5 -102.5q-133 0 -209 69t-76 202zM575 1563l371 221 l283 -221l-72 -84l-244 133l-299 -133z" />
<glyph unicode="&#xdc;" d="M346 246q0 113 49 354q35 168 103 449q80 326 90 376h149q-20 -104 -84.5 -366t-99.5 -436q-49 -246 -49 -355q0 -150 153 -149q113 0 181 80q55 66 82 190l219 1036h151l-231 -1081q-35 -164 -149.5 -266.5t-278.5 -102.5q-133 0 -209 69t-76 202zM610 1587 q0 63 39 119.5t101 56.5q41 0 60 -28.5t19 -71.5q0 -66 -34 -117q-41 -59 -103 -59q-43 0 -62.5 28.5t-19.5 71.5zM999 1587q0 63 39 119.5t103 56.5q41 0 60.5 -28.5t19.5 -71.5q0 -61 -37 -115q-43 -61 -101 -61q-43 0 -63.5 28.5t-20.5 71.5z" />
<glyph unicode="&#xdd;" d="M487 1399l154 55l150 -717l456 717l125 -57q-68 -104 -182 -269q-164 -233 -203 -294q-104 -162 -158 -275q-2 -4 -57 -268q-16 -82 -63 -295h-150q41 195 82 389q35 170 35 176q0 8 -55 254q-68 291 -134 584zM684 1579l430 219l51 -143l-442 -178z" />
<glyph unicode="&#xde;" d="M336 -4l303 1429h152l-68 -315h70q250 0 340 -74q80 -66 79 -200q0 -156 -81.5 -296.5t-221.5 -199.5q-41 -16 -87 -23.5t-103 -7.5q-27 0 -82 2t-82 2l-68 -317h-151zM584 449h194q125 0 203 118q70 106 70 240q0 88 -52.5 127t-142.5 39h-160z" />
<glyph unicode="&#xdf;" d="M303 -4l191 897q23 104 130 172t220 68q96 0 159.5 -54.5t63.5 -150.5q0 -90 -46 -176t-124 -129q70 -23 107.5 -86.5t37.5 -139.5q0 -156 -106.5 -278.5t-259.5 -122.5h-135l28 137q164 0 230 41q86 53 86 209q0 78 -53.5 109.5t-137.5 31.5l27 135q82 10 132 80t50 156 q0 49 -27.5 72.5t-76.5 23.5q-66 0 -108 -38t-68 -162l-170 -795h-150z" />
<glyph unicode="&#xe0;" d="M195 20l581 1094h189l118 -1094l-159 -53l-31 332h-387l-174 -332zM575 434h304l-48 494zM700 1346l113 141l336 -221l-80 -101z" />
<glyph unicode="&#xe1;" d="M195 20l581 1094h189l118 -1094l-159 -53l-31 332h-387l-174 -332zM575 434h304l-48 494zM684 1268l430 219l51 -144l-442 -178z" />
<glyph unicode="&#xe2;" d="M195 20l581 1094h189l118 -1094l-159 -53l-31 332h-387l-174 -332zM573 1251l371 222l283 -222l-72 -84l-244 133l-299 -133zM575 434h304l-48 494z" />
<glyph unicode="&#xe3;" d="M195 20l581 1094h189l118 -1094l-159 -53l-31 332h-387l-174 -332zM561 1217q43 78 72 114q84 113 186 113q47 0 96 -37q115 -86 127 -86q37 0 72 49q16 23 45 84l109 -37q-51 -104 -92 -151q-68 -78 -154 -78q-53 0 -104 37q-115 82 -127 82q-37 0 -76 -50 q-16 -20 -51 -81zM575 434h304l-48 494z" />
<glyph unicode="&#xe4;" d="M195 20l581 1094h189l118 -1094l-159 -53l-31 332h-387l-174 -332zM575 434h304l-48 494zM608 1276q0 63 39 119.5t101 56.5q41 0 60 -28.5t19 -71.5q0 -66 -34 -117q-41 -59 -103 -59q-43 0 -62.5 28.5t-19.5 71.5zM997 1276q0 63 39 119.5t103 56.5q41 0 60.5 -28.5 t19.5 -71.5q0 -61 -37 -115q-43 -61 -101 -61q-43 0 -63.5 28.5t-20.5 71.5z" />
<glyph unicode="&#xe5;" d="M195 20l581 1094h189l118 -1094l-159 -53l-31 332h-387l-174 -332zM575 434h304l-48 494zM709 1229q0 90 70.5 158.5t162.5 68.5q68 0 111 -40.5t43 -110.5q0 -90 -71 -159t-163 -69q-63 0 -108 43t-45 109zM807 1268q0 -45 16.5 -71t57.5 -26q35 0 75.5 31t40.5 66 q0 39 -17 65.5t-56 26.5q-35 0 -76 -29.5t-41 -62.5z" />
<glyph unicode="&#xe6;" d="M82 20l582 1094h712l-28 -137h-379l-68 -324h307l-28 -135h-308l-81 -387h378l-30 -135h-529l64 303h-283l-172 -332zM463 434h242l114 543h-82z" />
<glyph unicode="&#xe7;" d="M332 354q0 283 135 510q162 270 424 271q123 0 194.5 -61.5t110.5 -182.5l-149 -70q-23 74 -64 117q-49 53 -119 53q-180 0 -289 -231q-88 -188 -88 -391q0 -115 37 -174q47 -76 154 -76q92 0 168 55q23 16 131 125l106 -86q-104 -115 -184 -166q-109 -70 -237 -70 q-170 0 -254 107q-76 96 -76 270zM373 -342l69 115q35 -18 73 -30.5t75 -12.5q35 0 53.5 10t18.5 27q0 47 -78 56t-92 9l116 203h137l-63 -119q29 0 51 -8q90 -25 90 -113q0 -86 -76.5 -143.5t-166.5 -57.5q-51 0 -97.5 15.5t-109.5 48.5z" />
<glyph unicode="&#xe8;" d="M326 -4l237 1118h699l-29 -137h-549l-68 -324h453l-29 -135h-452l-82 -387h549l-31 -135h-698zM700 1346l113 141l336 -221l-80 -101z" />
<glyph unicode="&#xe9;" d="M326 -4l237 1118h699l-29 -137h-549l-68 -324h453l-29 -135h-452l-82 -387h549l-31 -135h-698zM684 1268l430 219l51 -144l-442 -178z" />
<glyph unicode="&#xea;" d="M326 -4l237 1118h699l-29 -137h-549l-68 -324h453l-29 -135h-452l-82 -387h549l-31 -135h-698zM573 1251l371 222l283 -222l-72 -84l-244 133l-299 -133z" />
<glyph unicode="&#xeb;" d="M326 -4l237 1118h699l-29 -137h-549l-68 -324h453l-29 -135h-452l-82 -387h549l-31 -135h-698zM608 1276q0 63 39 119.5t101 56.5q41 0 60 -28.5t19 -71.5q0 -66 -34 -117q-41 -59 -103 -59q-43 0 -62.5 28.5t-19.5 71.5zM997 1276q0 63 39 119.5t103 56.5 q41 0 60.5 -28.5t19.5 -71.5q0 -61 -37 -115q-43 -61 -101 -61q-43 0 -63.5 28.5t-20.5 71.5z" />
<glyph unicode="&#xec;" d="M401 -4l31 135h156l178 846h-156l29 137h465l-31 -137h-158l-178 -846h158l-29 -135h-465zM700 1346l113 141l336 -221l-80 -101z" />
<glyph unicode="&#xed;" d="M401 -4l31 135h156l178 846h-156l29 137h465l-31 -137h-158l-178 -846h158l-29 -135h-465zM684 1268l430 219l51 -144l-442 -178z" />
<glyph unicode="&#xee;" d="M401 -4l31 135h156l178 846h-156l29 137h465l-31 -137h-158l-178 -846h158l-29 -135h-465zM573 1251l371 222l283 -222l-72 -84l-244 133l-299 -133z" />
<glyph unicode="&#xef;" d="M401 -4l31 135h156l178 846h-154l27 137h467l-31 -137h-157l-179 -846h156l-29 -135h-465zM608 1276q0 63 40 120.5t100 57.5q45 0 61 -31q20 -35 20 -71q0 -53 -22.5 -92t-52 -61.5t-64.5 -22.5q-43 0 -62.5 28.5t-19.5 71.5zM999 1276q0 66 38 121t100 55 q43 0 63.5 -28.5t20.5 -71.5q0 -59 -41 -117.5t-101 -58.5q-41 0 -60.5 28.5t-19.5 71.5z" />
<glyph unicode="&#xf0;" d="M246 -4l28 135h115l76 354h-115l29 138h115l73 354h-114l30 137h371q182 0 272 -65q102 -76 103 -250q0 -342 -133 -553q-158 -250 -475 -250h-375zM541 131l145 2q199 0 301 227q80 176 80 404q0 109 -48 161t-157 52h-143l-74 -354h168l-31 -138h-168z" />
<glyph unicode="&#xf1;" d="M260 -4l238 1118h182l227 -932q25 174 60 350q27 133 127 582h151l-237 -1118h-183l-229 928q-25 -186 -57 -351q-23 -119 -127 -577h-152zM561 1214q43 78 72 115q84 113 186 113q47 0 96 -37q115 -86 127 -86q37 0 72 49q16 23 45 84l109 -37q-51 -104 -92 -151 q-68 -78 -154 -78q-53 0 -104 37q-115 82 -127 82q-37 0 -76 -50q-16 -20 -51 -81z" />
<glyph unicode="&#xf2;" d="M328 338q0 279 131 514q156 281 413 281q160 0 236 -111q66 -96 66 -264q0 -276 -132 -506q-156 -274 -411 -275q-154 0 -234 107q-70 94 -69 254zM487 356q0 -102 33 -159q43 -76 139 -76q172 0 275 241q82 195 82 396q0 102 -33 160q-43 74 -139 73q-172 0 -275 -241 q-82 -193 -82 -394zM700 1348l113 141l336 -221l-80 -101z" />
<glyph unicode="&#xf3;" d="M328 338q0 279 131 514q156 281 413 281q160 0 236 -111q66 -96 66 -264q0 -276 -132 -506q-156 -274 -411 -275q-154 0 -234 107q-70 94 -69 254zM487 356q0 -102 33 -159q43 -76 139 -76q172 0 275 241q82 195 82 396q0 102 -33 160q-43 74 -139 73q-172 0 -275 -241 q-82 -193 -82 -394zM684 1270l430 219l51 -143l-442 -179z" />
<glyph unicode="&#xf4;" d="M328 338q0 279 131 514q156 281 413 281q160 0 236 -111q66 -96 66 -264q0 -276 -132 -506q-156 -274 -411 -275q-154 0 -234 107q-70 94 -69 254zM487 356q0 -102 33 -159q43 -76 139 -76q172 0 275 241q82 195 82 396q0 102 -33 160q-43 74 -139 73q-172 0 -275 -241 q-82 -193 -82 -394zM573 1253l371 222l283 -222l-72 -84l-244 134l-299 -134z" />
<glyph unicode="&#xf5;" d="M328 338q0 279 131 514q156 281 413 281q160 0 236 -111q66 -96 66 -264q0 -276 -132 -506q-156 -274 -411 -275q-154 0 -234 107q-70 94 -69 254zM487 356q0 -102 33 -159q43 -76 139 -76q172 0 275 241q82 195 82 396q0 102 -33 160q-43 74 -139 73q-172 0 -275 -241 q-82 -193 -82 -394zM561 1219q43 78 72 114q84 113 186 113q47 0 96 -37q115 -86 127 -86q37 0 72 49q16 23 45 84l109 -37q-51 -104 -92 -151q-68 -78 -154 -78q-53 0 -104 37q-115 82 -127 82q-37 0 -76 -49q-16 -20 -51 -82z" />
<glyph unicode="&#xf6;" d="M328 338q0 279 131 514q156 281 413 281q160 0 236 -111q66 -96 66 -264q0 -276 -132 -506q-156 -274 -411 -275q-154 0 -234 107q-70 94 -69 254zM487 356q0 -102 33 -159q43 -76 139 -76q172 0 275 241q82 195 82 396q0 102 -33 160q-43 74 -139 73q-172 0 -275 -241 q-82 -193 -82 -394zM608 1278q0 63 39 119.5t101 56.5q41 0 60 -28.5t19 -71.5q0 -66 -34 -117q-41 -59 -103 -59q-43 0 -62.5 28.5t-19.5 71.5zM997 1278q0 63 39 119.5t103 56.5q41 0 60.5 -28.5t19.5 -71.5q0 -61 -37 -115q-43 -61 -101 -61q-43 0 -63.5 28.5t-20.5 71.5 z" />
<glyph unicode="&#xf7;" d="M66 715v102h1138v-102h-1138zM539 1098q0 41 26.5 67.5t67.5 26.5q43 0 69.5 -28.5t26.5 -71.5q0 -39 -29.5 -65t-70.5 -26q-39 0 -64.5 28t-25.5 69zM541 438q0 41 26.5 67.5t67.5 26.5q43 0 69.5 -28.5t26.5 -73.5q0 -39 -29.5 -64.5t-70.5 -25.5t-65.5 28.5 t-24.5 69.5z" />
<glyph unicode="&#xf8;" d="M274 23l93 124q-18 43 -26.5 90.5t-8.5 98.5q0 281 131 516q156 283 414 283q55 0 102 -14.5t86 -49.5l61 80l101 -64l-86 -120q20 -47 28.5 -94.5t8.5 -100.5q0 -274 -134 -512q-160 -285 -411 -285q-57 0 -104.5 15.5t-88.5 52.5l-61 -82zM487 383l2 -72l478 631 q-20 27 -50 38t-73 11q-166 0 -271 -229q-86 -188 -86 -379zM537 170q47 -49 122 -49q166 0 273 223q86 182 86 371l-2 88z" />
<glyph unicode="&#xf9;" d="M338 233q0 82 37 263q27 131 78 340q66 268 67 278h152q-12 -59 -68 -276q-47 -182 -72 -312q-35 -176 -34 -274q0 -74 37.5 -103.5t111.5 -29.5q123 0 180.5 55t83.5 180l162 760h152l-178 -827q-31 -145 -147 -227.5t-269 -82.5q-135 0 -214 61.5t-79 194.5zM700 1346 l113 141l336 -221l-80 -101z" />
<glyph unicode="&#xfa;" d="M338 233q0 82 37 263q27 131 78 340q66 268 67 278h152q-12 -59 -68 -276q-47 -182 -72 -312q-35 -176 -34 -274q0 -74 37.5 -103.5t111.5 -29.5q123 0 180.5 55t83.5 180l162 760h152l-178 -827q-31 -145 -147 -227.5t-269 -82.5q-135 0 -214 61.5t-79 194.5zM684 1268 l430 219l51 -144l-442 -178z" />
<glyph unicode="&#xfb;" d="M338 233q0 82 37 263q27 131 78 340q66 268 67 278h152q-12 -59 -68 -276q-47 -182 -72 -312q-35 -176 -34 -274q0 -74 37.5 -103.5t111.5 -29.5q123 0 180.5 55t83.5 180l162 760h152l-178 -827q-31 -145 -147 -227.5t-269 -82.5q-135 0 -214 61.5t-79 194.5zM573 1251 l371 222l283 -222l-72 -84l-244 133l-299 -133z" />
<glyph unicode="&#xfc;" d="M338 233q0 82 37 263q27 131 78 340q66 268 67 278h152q-12 -59 -68 -276q-47 -182 -72 -312q-35 -176 -34 -274q0 -74 37.5 -103.5t111.5 -29.5q123 0 180.5 55t83.5 180l162 760h152l-178 -827q-31 -145 -147 -227.5t-269 -82.5q-135 0 -214 61.5t-79 194.5zM608 1276 q0 63 39 119.5t101 56.5q41 0 60 -28.5t19 -71.5q0 -66 -34 -117q-41 -59 -103 -59q-43 0 -62.5 28.5t-19.5 71.5zM997 1276q0 63 39 119.5t103 56.5q41 0 60.5 -28.5t19.5 -71.5q0 -61 -37 -115q-43 -61 -101 -61q-43 0 -63.5 28.5t-20.5 71.5z" />
<glyph unicode="&#xfd;" d="M426 1069l158 74l174 -568l413 568l125 -74q-31 -41 -164 -201.5t-190 -234.5q-98 -129 -141 -207q-2 -4 -44 -201.5t-48 -228.5h-152l92 432zM684 1268l430 219l51 -144l-442 -178z" />
<glyph unicode="&#xfe;" d="M336 -4l237 1118h152l-51 -240l131 5q166 0 248 -37q123 -55 123 -201q0 -264 -207 -352q-129 -55 -430 -56l-52 -237h-151zM567 371h191q115 0 186.5 65.5t71.5 177.5q0 70 -51.5 97.5t-128.5 27.5h-191z" />
<glyph unicode="&#xff;" d="M426 1069l158 74l174 -568l413 568l125 -74q-31 -41 -164 -201.5t-190 -234.5q-98 -129 -141 -207q-2 -4 -44 -201.5t-48 -228.5h-152l92 432zM608 1276q0 63 39 119.5t101 56.5q41 0 60 -28.5t19 -71.5q0 -66 -34 -117q-41 -59 -103 -59q-43 0 -62.5 28.5t-19.5 71.5z M997 1276q0 63 39 119.5t103 56.5q41 0 60.5 -28.5t19.5 -71.5q0 -61 -37 -115q-43 -61 -101 -61q-43 0 -63.5 28.5t-20.5 71.5z" />
<glyph unicode="&#x152;" d="M246 373q0 197 59 428q72 279 191 440q150 203 350 203q119 0 217 -4q340 -15 369 -15l-29 -137h-328l-98 -459h303l-29 -137h-301l-119 -561h326l-29 -135q-92 0 -219 -6q-295 -14 -364 -15q-166 0 -240 121q-59 98 -59 277zM397 350q0 -102 31 -157q41 -74 135 -74 q63 0 123 39l236 1112q-18 16 -48 24.5t-59 8.5q-139 0 -244 -195q-84 -156 -133 -406q-41 -207 -41 -352z" />
<glyph unicode="&#x153;" d="M213 340q0 283 129 514q156 279 416 279q23 0 65.5 -9.5t55.5 -9.5h507l-28 -137h-377l-70 -324h312l-31 -135h-309l-82 -387h379l-31 -135h-508q-18 0 -43 -6q-57 -14 -72 -15q-166 0 -243 103q-70 92 -70 262zM373 352q0 -104 30 -159q41 -74 138 -74q59 0 110 28 l174 816q-41 29 -98 28q-172 0 -274 -243q-80 -193 -80 -396z" />
<glyph unicode="&#x178;" d="M487 1399l154 55l150 -717l456 717l125 -57q-68 -104 -182 -269q-164 -233 -203 -294q-104 -162 -158 -275q-2 -4 -57 -268q-16 -82 -63 -295h-150q41 195 82 389q35 170 35 176q0 8 -55 254q-68 291 -134 584zM608 1587q0 63 39 119.5t101 56.5q41 0 60 -28.5t19 -71.5 q0 -66 -34 -117q-41 -59 -103 -59q-43 0 -62.5 28.5t-19.5 71.5zM997 1587q0 63 39 119.5t103 56.5q41 0 60.5 -28.5t19.5 -71.5q0 -61 -37 -115q-43 -61 -101 -61q-43 0 -63.5 28.5t-20.5 71.5z" />
<glyph unicode="&#x2c6;" d="M573 1251l371 222l283 -222l-72 -84l-244 133l-299 -133z" />
<glyph unicode="&#x2dc;" d="M561 1217q43 78 72 114q84 113 186 113q47 0 96 -37q115 -86 127 -86q37 0 72 49q16 23 45 84l109 -37q-51 -104 -92 -151q-68 -78 -154 -78q-53 0 -104 37q-115 82 -127 82q-37 0 -76 -50q-16 -20 -51 -81z" />
<glyph unicode="&#x2000;" horiz-adv-x="899" />
<glyph unicode="&#x2001;" horiz-adv-x="1798" />
<glyph unicode="&#x2002;" horiz-adv-x="899" />
<glyph unicode="&#x2003;" horiz-adv-x="1798" />
<glyph unicode="&#x2004;" horiz-adv-x="599" />
<glyph unicode="&#x2005;" horiz-adv-x="449" />
<glyph unicode="&#x2006;" horiz-adv-x="299" />
<glyph unicode="&#x2007;" horiz-adv-x="299" />
<glyph unicode="&#x2008;" horiz-adv-x="224" />
<glyph unicode="&#x2009;" horiz-adv-x="359" />
<glyph unicode="&#x200a;" horiz-adv-x="99" />
<glyph unicode="&#x2010;" d="M496 483l32 144h480l-29 -144h-483z" />
<glyph unicode="&#x2011;" d="M496 483l32 144h480l-29 -144h-483z" />
<glyph unicode="&#x2012;" d="M496 483l32 144h480l-29 -144h-483z" />
<glyph unicode="&#x2013;" d="M262 483l29 144h952l-29 -144h-952z" />
<glyph unicode="&#x2014;" d="M96 483l31 144h1282l-31 -144h-1282z" />
<glyph unicode="&#x2018;" d="M664 995q33 170 109.5 274.5t227.5 176.5l25 -125q-80 -45 -115 -141q-14 -37 -43 -185h-204z" />
<glyph unicode="&#x2019;" d="M698 1100q82 45 117 141q14 39 43 184h205q-39 -172 -109 -270q-80 -113 -229 -182z" />
<glyph unicode="&#x201a;" d="M465 -6q80 45 115 141q14 37 43 184h204q-37 -178 -106.5 -272t-231.5 -178z" />
<glyph unicode="&#x201c;" d="M510 995q37 174 106 273q78 109 232 178l24 -125q-80 -45 -114 -141q-8 -25 -43 -185h-205zM903 995q37 174 107 273q78 109 231 178l23 -125q-80 -45 -115 -141q-10 -31 -41 -185h-205z" />
<glyph unicode="&#x201d;" d="M516 1098q92 53 129 186q12 43 31 141h205q-39 -174 -109 -270q-76 -104 -229 -182zM907 1098q66 37 99 100q27 47 63 227h205q-41 -182 -107 -272q-72 -100 -231 -180z" />
<glyph unicode="&#x201e;" d="M283 -6q63 35 96 98q27 49 61 227h205q-37 -178 -106.5 -271t-231.5 -181zM674 -4q78 43 114 141q14 37 46 182h202q-35 -180 -104.5 -272t-231.5 -180z" />
<glyph unicode="&#x2022;" d="M369 537q0 106 77.5 186t188.5 80t188.5 -78t77.5 -188q0 -111 -78 -189t-188 -78q-111 0 -188.5 78t-77.5 189z" />
<glyph unicode="&#x2026;" d="M106 -4l68 323h205l-68 -323h-205zM532 -4l68 323h203l-68 -323h-203zM956 -4l68 323h205l-68 -323h-205z" />
<glyph unicode="&#x202f;" horiz-adv-x="359" />
<glyph unicode="&#x2039;" d="M442 705l654 516l84 -113l-523 -406l349 -409l-127 -111z" />
<glyph unicode="&#x203a;" d="M387 295l522 407l-348 408l127 111l436 -519l-653 -520z" />
<glyph unicode="&#x205f;" horiz-adv-x="449" />
<glyph unicode="&#x2122;" d="M319 1352l21 92h496l-21 -92h-201l-108 -516h-92l108 516h-203zM770 836l129 608h152l79 -416l265 416h147l-129 -608h-94l104 497l-305 -497h-59l-86 499l-109 -499h-94z" />
<glyph unicode="&#x25fc;" horiz-adv-x="1146" d="M0 0v1147h1147v-1147h-1147z" />
</font>
</defs>
</svg>
