<?xml version="1.0" standalone="no"?>
<!DOCTYPE svg PUBLIC "-//W3C//DTD SVG 1.1//EN" "http://www.w3.org/Graphics/SVG/1.1/DTD/svg11.dtd" >
<svg xmlns="http://www.w3.org/2000/svg">
<metadata></metadata>
<defs>
<font id="orator15_btregular" horiz-adv-x="821" >
<font-face units-per-em="2048" ascent="1556" descent="-492" />
<missing-glyph horiz-adv-x="500" />
<glyph horiz-adv-x="0" />
<glyph unicode="&#xd;" />
<glyph unicode=" " />
<glyph unicode="!" d="M324 0v279h174v-279h-174zM332 1323h157l-30 -889h-94z" />
<glyph unicode="&#x22;" d="M256 649v451h92v-451h-92zM473 649v451h92v-451h-92z" />
<glyph unicode="#" d="M-18 420l18 104h158l69 297h-202l12 105h215l96 420l107 -15l-95 -405h236l96 420l107 -15l-90 -405h131l-13 -105h-143l-70 -297h201l-14 -104h-211l-98 -434l-111 14l98 420h-231l-103 -434l-110 14l98 420h-151zM270 524h234l67 297h-233z" />
<glyph unicode="$" d="M61 352l84 64q46 -57 101.5 -92.5t120.5 -49.5v363q-158 52 -224.5 118.5t-66.5 170.5q0 107 78.5 175.5t212.5 74.5v157l94 13v-175q85 -14 148 -49t108 -94l-76 -72q-47 44 -89.5 67.5t-90.5 33.5v-318q156 -43 229.5 -115.5t73.5 -181.5q0 -116 -83.5 -195t-219.5 -89 v-158l-94 -12v172q-92 13 -168.5 61.5t-137.5 130.5zM199 932q0 -57 36.5 -92.5t131.5 -65.5v293q-83 -5 -125.5 -39.5t-42.5 -95.5zM461 273q79 3 130.5 49.5t51.5 113.5q0 61 -47 105t-135 67v-335z" />
<glyph unicode="%" d="M66 -12l544 1239q-29 -15 -56.5 -22t-55.5 -7q-11 0 -24.5 1.5t-30.5 4.5q4 -35 7 -67t3 -58q0 -112 -50.5 -177.5t-136.5 -65.5q-89 0 -138.5 67.5t-49.5 188.5q0 120 49.5 187t138.5 67q34 0 97 -25t114 -25q50 0 104.5 12.5t108.5 37.5h74l-594 -1358h-104zM186 1092 q0 -77 20 -114.5t60 -37.5t59 36.5t19 115.5q0 77 -18.5 113t-59.5 36t-60.5 -36.5t-19.5 -112.5zM375 242q0 122 49 188t139 66q89 0 138 -66.5t49 -187.5t-49.5 -187.5t-137.5 -66.5q-90 0 -139 65.5t-49 188.5zM483 242q0 -78 19 -114t59 -36q41 0 60.5 36.5t19.5 113.5 q0 76 -19.5 112.5t-60.5 36.5q-40 0 -59 -36t-19 -113z" />
<glyph unicode="&#x26;" d="M14 297q0 86 49.5 155t163.5 142l-77 108q-37 50 -55.5 101.5t-18.5 99.5q0 111 79 185.5t197 74.5q131 0 211 -72.5t80 -191.5q0 -88 -54.5 -162t-191.5 -164l224 -303q23 42 37 90t24 129l114 -22q-9 -91 -35 -166t-69 -135l119 -166h-141l-66 86q-55 -51 -121 -75.5 t-145 -24.5q-142 0 -233 88.5t-91 222.5zM137 305q0 -85 63.5 -143t157.5 -58q53 0 98.5 18.5t84.5 55.5l-244 336q-85 -52 -122.5 -101.5t-37.5 -107.5zM199 911q0 -32 15 -68.5t52 -90.5l66 -93q113 74 152.5 123.5t39.5 108.5q0 72 -49 118t-127 46q-64 0 -106.5 -41 t-42.5 -103z" />
<glyph unicode="'" d="M365 649v451h92v-451h-92z" />
<glyph unicode="(" d="M217 662q0 196 72.5 364t218.5 311h115q-148 -171 -213.5 -330t-65.5 -345q0 -187 65.5 -346t213.5 -328h-115q-147 143 -219 310.5t-72 363.5z" />
<glyph unicode=")" d="M121 -12q147 169 212.5 328t65.5 346q0 186 -65.5 346t-212.5 329h117q145 -143 216.5 -311t71.5 -364t-71.5 -363t-216.5 -311h-117z" />
<glyph unicode="*" d="M109 987v117l223 -12l-123 186l100 59l103 -200l102 200l98 -57l-120 -188l225 10v-117l-223 14l120 -190l-102 -57l-100 200l-103 -200l-100 57l123 188zM375 1036q0 -14 10 -23t25 -9t28 13t13 32q0 16 -11 26t-28 10q-14 0 -25.5 -15t-11.5 -34z" />
<glyph unicode="+" d="M16 612v109h338v377h113v-377h340v-109h-340v-379h-113v379h-338z" />
<glyph unicode="," d="M94 -86q152 57 214.5 154t62.5 280v10h174v-77q0 -219 -108 -340.5t-322 -143.5z" />
<glyph unicode="-" d="M109 485v109h606v-109h-606z" />
<glyph unicode="." d="M324 0v358h174v-358h-174z" />
<glyph unicode="/" d="M-59 -174l823 1511h117l-828 -1511h-112z" />
<glyph unicode="0" d="M39 580v86v86q0 164 9.5 238.5t31.5 125.5q48 114 130.5 172t199.5 58q116 0 200 -58t131 -172q23 -55 32 -135.5t9 -263.5v-51v-52q0 -183 -9 -263t-32 -134q-47 -113 -131 -171t-200 -58t-199.5 58t-130.5 171q-22 52 -31.5 126t-9.5 237zM166 668q0 -340 54 -451 t190 -111t190.5 111.5t54.5 450.5q0 335 -54.5 448t-190.5 113t-190 -111.5t-54 -449.5z" />
<glyph unicode="1" d="M68 0l14 113h299v1091l-258 -69l-27 108l367 103l41 -50v-1183h289l-15 -113h-710z" />
<glyph unicode="2" d="M27 987q48 186 144 273.5t253 87.5q165 0 266 -89t101 -233q0 -164 -301 -529q-192 -233 -300 -384h605l-13 -113h-735v113q127 179 342 444q275 340 275 451q0 101 -66 163t-174 62q-103 0 -170.5 -63t-118.5 -207z" />
<glyph unicode="3" d="M8 1219l15 114h733l12 -114l-391 -375q174 -8 282.5 -111.5t108.5 -259.5q0 -207 -198 -346t-507 -139h-18l-12 112h41q262 0 414.5 103t152.5 274q0 117 -83 190.5t-216 73.5q-35 0 -73.5 -3t-84.5 -9l-18 64l436 426h-594z" />
<glyph unicode="4" d="M23 334l210 1012l111 -13l-182 -884h411v661l123 14v-675h123l-12 -115h-111v-334l-123 -12v346h-550z" />
<glyph unicode="5" d="M59 96h41q260 0 415 105t155 276q0 123 -80.5 190.5t-229.5 67.5q-67 0 -133 -10.5t-133 -32.5v641h686l-32 -114h-531v-393q47 8 90 13t80 5q177 0 293.5 -106t116.5 -265q0 -208 -196.5 -346.5t-508.5 -138.5h-18z" />
<glyph unicode="6" d="M31 754q0 311 95.5 452.5t303.5 141.5q87 0 162.5 -30t136.5 -87l-74 -82q-62 48 -112 68t-107 20q-152 0 -215 -88t-63 -307q0 -42 0.5 -65.5t1.5 -42.5q69 56 141 86t141 30q162 0 254 -114.5t92 -315.5q0 -209 -94 -320.5t-270 -111.5q-215 0 -304 167t-89 599z M164 557q0 -235 62 -346t192 -111q115 0 179.5 84.5t64.5 235.5q0 147 -62.5 232t-169.5 85q-60 0 -127 -28.5t-137 -83.5q0 -28 -2 -59v-9z" />
<glyph unicode="7" d="M125 0l567 1219h-561l14 114h723l-626 -1345z" />
<glyph unicode="8" d="M18 352q0 123 69.5 207.5t215.5 138.5q-121 56 -179 135.5t-58 188.5q0 135 102 230.5t244 95.5q141 0 242.5 -95.5t101.5 -230.5q0 -110 -57.5 -189t-178.5 -135q150 -58 217.5 -142t67.5 -214q0 -154 -111 -255t-282 -101q-175 0 -284.5 102t-109.5 264zM145 340 q0 -107 74 -173.5t193 -66.5t192.5 66t73.5 174q0 97 -62 166t-204 129q-141 -59 -204 -129t-63 -166zM193 1016q0 -73 50.5 -133t168.5 -125q121 67 169 126t48 138q0 82 -66 146.5t-151 64.5q-86 0 -152.5 -65.5t-66.5 -151.5z" />
<glyph unicode="9" d="M31 915q0 209 95 321t271 112q215 0 304.5 -167.5t89.5 -594.5q0 -315 -95.5 -456.5t-304.5 -141.5q-87 0 -162.5 29t-138.5 87l76 82q55 -44 106 -66t99 -22q163 0 228 86.5t65 313.5q0 41 -0.5 62.5t-2.5 41.5q-72 -59 -144 -89t-140 -30q-162 0 -254 114.5t-92 317.5z M158 915q0 -147 63 -233t170 -86q57 0 126 29.5t138 85.5v49q0 251 -59.5 362t-192.5 111q-116 0 -180.5 -83.5t-64.5 -234.5z" />
<glyph unicode=":" d="M324 0v279h174v-279h-174zM324 545v278h174v-278h-174z" />
<glyph unicode=";" d="M82 -18q143 56 205 140.5t71 235.5h174v-6q0 -220 -105.5 -340t-324.5 -149zM358 545v278h174v-278h-174z" />
<glyph unicode="&#x3c;" d="M63 496v108l695 291v-123l-545 -223l545 -221v-123z" />
<glyph unicode="=" d="M16 502v108h791v-108h-791zM16 721v108h791v-108h-791z" />
<glyph unicode="&#x3e;" d="M63 205v123l547 221l-547 223v123l695 -291v-108z" />
<glyph unicode="?" d="M31 971q19 171 123.5 268.5t267.5 97.5q168 0 266 -89.5t98 -243.5q0 -89 -40 -161t-175 -190l-2 -2q-94 -81 -94 -188v-29h-129q-1 15 -1.5 27.5t-0.5 23.5q0 65 18 110t60 87q28 27 83 74q157 133 157 252q0 99 -59.5 156t-164.5 57q-117 0 -186 -62.5t-113 -208.5z M322 0v279h174v-279h-174z" />
<glyph unicode="@" d="M41 297q0 159 66 255.5t174 96.5q28 0 65 -11t74 -32l29 39l92 -14v-395q0 -80 13 -107t46 -27q43 0 59.5 51.5t16.5 229.5v156v135q0 118 -9 175.5t-30 94.5q-33 58 -87 85.5t-134 27.5q-113 0 -173 -72.5t-79 -230.5l-114 20q4 189 102.5 292t273.5 103q89 0 159.5 -29 t121.5 -87q48 -55 69 -128.5t21 -246.5v-199q0 -178 -9.5 -257.5t-31.5 -125.5q-26 -52 -71 -80t-101 -28q-48 0 -81 19.5t-63 64.5q-48 -43 -90 -63.5t-84 -20.5q-98 0 -161.5 85.5t-63.5 223.5zM166 307q0 -102 32.5 -153.5t96.5 -51.5q29 0 60 16t65 48v323 q-36 24 -69.5 36t-63.5 12q-61 0 -91 -57.5t-30 -172.5z" />
<glyph unicode="A" d="M6 0l320 1323l153 14l332 -1337l-119 -12l-82 364h-403l-82 -364zM229 465h353l-176 723z" />
<glyph unicode="B" d="M16 115h123v1095h-123l13 113h278q222 0 318 -75.5t96 -246.5q0 -114 -48.5 -189t-137.5 -99q119 -42 182 -133.5t63 -225.5q0 -185 -120.5 -269.5t-389.5 -84.5h-241zM262 115h80q162 0 235.5 59.5t73.5 190.5q0 135 -84.5 207.5t-244.5 72.5h-60v-530zM262 764h66 q146 0 207 49.5t61 163.5q0 123 -59.5 178t-194.5 55h-80v-446z" />
<glyph unicode="C" d="M68 662q0 218 22.5 339.5t73.5 194.5q45 65 120.5 103t159.5 38q112 0 197.5 -59.5t126.5 -167.5l-111 -59q-32 85 -84.5 126.5t-128.5 41.5q-135 0 -193 -125t-58 -432q0 -308 58 -433t193 -125q77 0 135 47t105 148l102 -57q-53 -127 -138.5 -190.5t-203.5 -63.5 q-84 0 -159.5 37.5t-120.5 101.5q-51 73 -73.5 194.5t-22.5 340.5z" />
<glyph unicode="D" d="M10 115h123v1095h-123l13 113h303q251 0 345.5 -131t94.5 -530q0 -392 -103.5 -527t-373.5 -135h-266zM256 115h80q77 0 136 24.5t97 73.5q39 48 54.5 130t15.5 319q0 199 -11 283.5t-38 131.5q-37 66 -101 99.5t-153 33.5h-80v-1095z" />
<glyph unicode="E" d="M92 0v1323h637l14 -113h-528v-446h399l-12 -113h-387v-538h573l-14 -113h-682z" />
<glyph unicode="F" d="M109 -12v1335h686l14 -113h-578v-446h519l-15 -113h-504v-651z" />
<glyph unicode="G" d="M45 662q0 220 22.5 341.5t73.5 192.5q47 66 122 103.5t159 37.5q104 0 187.5 -54t131.5 -155l-98 -63q-48 82 -100 118t-121 36q-136 0 -193 -124.5t-57 -432.5q0 -317 59 -437.5t203 -120.5q54 0 103.5 17t95.5 51v428h-258l14 113h367v-607q-77 -59 -160 -88.5 t-174 -29.5q-85 0 -160.5 37.5t-120.5 101.5q-50 73 -73 196.5t-23 338.5z" />
<glyph unicode="H" d="M76 -12v1335l123 14v-604h426v590l123 14v-1337l-123 -12v633h-426v-621z" />
<glyph unicode="I" d="M172 0l12 115h166v1095h-178l12 113h467l-12 -113h-166v-1095h178l-12 -115h-467z" />
<glyph unicode="J" d="M23 319l96 64q47 -142 113 -209.5t157 -67.5q98 0 142 59t44 189v969l123 14v-987q0 -179 -76 -270.5t-225 -91.5q-136 0 -229 82t-145 249z" />
<glyph unicode="K" d="M104 -12v1335l123 14v-647l27 4l477 643l94 -53l-458 -625l510 -659l-132 -12l-487 622h-31v-610z" />
<glyph unicode="L" d="M115 0v1323l123 14v-1224h546l-12 -113h-657z" />
<glyph unicode="M" d="M57 -12v1335l170 14l191 -594l184 580l164 14v-1337l-115 -12v1192l-239 -719l-240 719v-1180z" />
<glyph unicode="N" d="M68 -12v1335l178 14l389 -1063v1049l119 14v-1337l-123 -12l-445 1194v-1182z" />
<glyph unicode="O" d="M35 662q0 217 22.5 338.5t73.5 195.5q45 65 120.5 103t160.5 38q84 0 158.5 -37.5t119.5 -103.5q53 -75 75.5 -205t22.5 -370q0 -328 -91 -480.5t-285 -152.5q-86 0 -161 37t-120 102q-51 73 -73.5 194t-22.5 341zM160 662q0 -310 58 -434t194 -124q135 0 193.5 125.5 t58.5 432.5q0 306 -58.5 431.5t-193.5 125.5q-136 0 -194 -124t-58 -433z" />
<glyph unicode="P" d="M106 -12v1335h265q220 0 328 -92.5t108 -282.5q0 -194 -109.5 -284.5t-347.5 -90.5h-121v-573zM229 686h103q194 0 271 61t77 201q0 80 -32.5 141t-90.5 93q-31 15 -79 21.5t-154 6.5h-95v-524z" />
<glyph unicode="Q" d="M35 662q0 217 22.5 338.5t73.5 195.5q45 65 120.5 103t160.5 38q198 0 286 -156t88 -519q0 -197 -18 -311.5t-59 -190.5l129 -160h-144l-59 70q-52 -43 -106 -62.5t-117 -19.5q-200 0 -288.5 155t-88.5 519zM160 662q0 -310 58 -434t194 -124q44 0 79 14.5t66 45.5 l-295 364h144l212 -264q23 56 33.5 152.5t10.5 245.5q0 308 -57.5 432.5t-192.5 124.5q-136 0 -194 -124t-58 -433z" />
<glyph unicode="R" d="M109 -12v1335h225q103 0 160.5 -11t97.5 -36q75 -46 119.5 -131.5t44.5 -188.5q0 -114 -51 -197.5t-144 -123.5l268 -635l-116 -12l-262 614q-28 -4 -57.5 -6t-63.5 -2q-32 0 -54.5 0.5t-43.5 1.5l-1 -596zM231 711h93q166 0 234.5 55.5t68.5 183.5q0 138 -71.5 199 t-244.5 61h-80v-499z" />
<glyph unicode="S" d="M18 350l107 43q40 -146 111.5 -218.5t177.5 -72.5q102 0 175 66.5t73 159.5q0 85 -61.5 154.5t-219.5 154.5q-190 102 -260 186t-70 197q0 139 99.5 226t261.5 87q135 0 230.5 -88t125.5 -241l-109 -27q-23 113 -94 178.5t-170 65.5q-93 0 -155 -58t-62 -145 q0 -74 48 -129.5t196 -134.5q206 -113 286 -207t80 -211q0 -142 -112 -245t-270 -103q-150 0 -251.5 94.5t-136.5 267.5z" />
<glyph unicode="T" d="M12 1210l15 113h782l-14 -113h-324v-1210l-123 -12v1222h-336z" />
<glyph unicode="U" d="M78 377v946l123 14v-983q0 -134 49.5 -193t161.5 -59q110 0 159.5 59t49.5 193v969l122 14v-960q0 -206 -79 -297.5t-252 -91.5q-176 0 -255 91.5t-79 297.5z" />
<glyph unicode="V" d="M-18 1323l118 14l306 -1040l317 1040l117 -14l-414 -1323h-51z" />
<glyph unicode="W" d="M8 1323l105 14l102 -997l197 678l200 -678l99 997l104 -14l-137 -1323h-51l-215 711l-213 -711h-54z" />
<glyph unicode="X" d="M12 0l340 692l-307 631l113 14l256 -518l252 518l118 -14l-309 -631l338 -692l-113 -12l-286 581l-285 -581z" />
<glyph unicode="Y" d="M2 1323l115 14l295 -628l295 628l114 -14l-348 -743v-580l-123 -12v585z" />
<glyph unicode="Z" d="M14 33l631 1177h-602l12 113h760v-43l-622 -1167h622l-14 -113h-772z" />
<glyph unicode="[" d="M305 0v1323h283l14 -113h-174v-1097h174l-14 -113h-283z" />
<glyph unicode="\" d="M-59 1337h118l822 -1511h-111z" />
<glyph unicode="]" d="M184 115h172v1095h-172l13 113h282v-1323h-282z" />
<glyph unicode="^" d="M-8 637l375 473h90l372 -473h-122l-295 360l-297 -360h-123z" />
<glyph unicode="_" d="M-59 -457h940v-80h-940v80z" />
<glyph unicode="`" d="M180 1493h166l191 -319h-97z" />
<glyph unicode="a" d="M47 528q0 260 93.5 402.5t260.5 142.5q65 0 127 -23.5t121 -70.5v80l123 12v-1071l-123 -12v102q-64 -56 -119 -80t-116 -24q-174 0 -270.5 142.5t-96.5 399.5zM170 520q0 -209 65 -313.5t195 -104.5q52 0 100.5 21t118.5 76v657q-78 57 -130 78.5t-103 21.5 q-122 0 -184 -110t-62 -326z" />
<glyph unicode="b" d="M63 -12v1335l123 14v-358q60 47 121.5 70.5t126.5 23.5q169 0 260.5 -142t91.5 -403q0 -258 -96 -400t-270 -142q-61 0 -114.5 23.5t-119.5 80.5v-90zM186 199q72 -56 119 -76.5t98 -20.5q133 0 197 105t64 323q0 208 -62.5 317t-181.5 109q-52 0 -104 -21.5t-130 -78.5 v-657z" />
<glyph unicode="c" d="M68 528q0 270 95 406.5t281 136.5q111 0 197.5 -57.5t132.5 -161.5l-100 -70q-49 95 -101.5 133.5t-128.5 38.5q-130 0 -192 -103t-62 -323q0 -218 62 -321t192 -103q77 0 132 39t104 127l94 -59q-47 -110 -131 -166.5t-199 -56.5q-187 0 -281.5 136t-94.5 404z" />
<glyph unicode="d" d="M47 528q0 260 93.5 402.5t260.5 142.5q65 0 127 -23.5t121 -70.5v344l123 14v-1337l-123 -12v102q-64 -56 -119 -80t-116 -24q-174 0 -270.5 142.5t-96.5 399.5zM170 520q0 -209 65 -313.5t195 -104.5q52 0 100.5 21t118.5 76v657q-78 57 -130 78.5t-103 21.5 q-122 0 -184 -110t-62 -326z" />
<glyph unicode="e" d="M35 528q0 270 95 406.5t282 136.5q175 0 273.5 -126t98.5 -353v-62h-626v-10q0 -215 64 -315.5t200 -100.5q88 0 145 39.5t111 139.5l98 -50q-49 -119 -136 -182t-204 -63q-207 0 -304 130.5t-97 409.5zM162 645h499q-9 149 -74 229t-175 80t-174 -79t-76 -230z" />
<glyph unicode="f" d="M133 944l12 115h174v35q0 131 63.5 187t211.5 56q68 0 132 -11t126 -34l-39 -108q-71 20 -127.5 30.5t-95.5 10.5q-81 0 -114.5 -32.5t-33.5 -111.5v-22h322l-12 -115h-310v-944l-123 -12v956h-186z" />
<glyph unicode="g" d="M41 631q0 212 92.5 327t261.5 115q62 0 123.5 -19.5t122.5 -58.5v64l123 12v-833q0 -198 -89.5 -295t-273.5 -97q-88 0 -168 22t-159 66l53 105q61 -39 125.5 -58.5t132.5 -19.5q129 0 193.5 60.5t64.5 181.5q0 19 -0.5 35.5t-1.5 33.5q-63 -45 -119.5 -65.5 t-118.5 -20.5q-171 0 -266.5 117t-95.5 328zM164 631q0 -169 63 -249.5t195 -80.5q50 0 97.5 15t121.5 59v506q-73 43 -127 60t-108 17q-119 0 -180.5 -83.5t-61.5 -243.5z" />
<glyph unicode="h" d="M74 -12v1335l123 14v-403q72 69 146 105t144 36q138 0 201.5 -92t63.5 -293v-690l-123 -12v665q0 183 -39.5 245.5t-138.5 62.5q-64 0 -133 -43t-121 -115v-803z" />
<glyph unicode="i" d="M184 0l13 115h172v827h-185l13 117h295v-944h184l-14 -115h-478zM322 1253q0 53 26 84t70 31q43 0 69.5 -31.5t26.5 -83.5t-26.5 -83t-69.5 -31q-44 0 -70 31t-26 83z" />
<glyph unicode="j" d="M100 -139l9 116q32 -6 56.5 -9t41.5 -3q110 0 153 51t43 209v834l123 12v-893q0 -172 -77.5 -252t-243.5 -80q-14 0 -41.5 4t-63.5 11zM360 1253q0 53 27 84t72 31q43 0 68.5 -30.5t25.5 -84.5q0 -53 -25.5 -83.5t-68.5 -30.5q-45 0 -72 30.5t-27 83.5z" />
<glyph unicode="k" d="M137 -12v1335l123 14v-696h33l377 430l86 -74l-365 -415l467 -543l-104 -51l-461 530h-33v-518z" />
<glyph unicode="l" d="M172 0l12 115h172v1093h-184l12 115h295v-1208h185l-15 -115h-477z" />
<glyph unicode="m" d="M49 -14v1071l117 16v-94q31 47 66 69.5t77 22.5q51 0 87 -26t55 -76q30 49 72.5 75.5t90.5 26.5q83 0 122.5 -64.5t39.5 -199.5v-807l-117 -14v858q0 56 -17 87.5t-48 31.5q-32 0 -63 -25.5t-58 -73.5v-864l-117 -14v817q0 93 -14.5 126.5t-50.5 33.5q-31 0 -63 -25 t-62 -74v-864z" />
<glyph unicode="n" d="M74 -12v1071l123 12v-137q72 69 146 105t144 36q138 0 201.5 -92t63.5 -293v-690l-123 -12v665q0 183 -39.5 245.5t-138.5 62.5q-64 0 -133 -43t-121 -115v-803z" />
<glyph unicode="o" d="M35 528q0 270 95 406.5t282 136.5q186 0 280 -136.5t94 -406.5q0 -269 -94 -404.5t-280 -135.5q-188 0 -282.5 136t-94.5 404zM158 528q0 -217 62 -320.5t192 -103.5q129 0 190.5 103t61.5 321q0 219 -61.5 322.5t-190.5 103.5q-130 0 -192 -104t-62 -322z" />
<glyph unicode="p" d="M63 -143v1202l123 12v-86q62 44 123.5 66t122.5 22q169 0 262.5 -131.5t93.5 -372.5q0 -240 -96 -371.5t-270 -131.5q-62 0 -117.5 22.5t-118.5 73.5v-293zM186 268q77 -51 123.5 -68.5t96.5 -17.5q132 0 196 95.5t64 291.5q0 188 -63 286.5t-183 98.5 q-54 0 -106.5 -19.5t-127.5 -70.5v-596z" />
<glyph unicode="q" d="M41 561q0 248 91.5 380t262.5 132q61 0 121.5 -21.5t124.5 -66.5v74l123 12v-1202l-123 -12v305q-64 -53 -117.5 -74.5t-115.5 -21.5q-173 0 -270 130.5t-97 364.5zM164 569q0 -198 63 -292.5t195 -94.5q50 0 96.5 17.5t122.5 68.5v596q-75 51 -127.5 70.5t-105.5 19.5 q-120 0 -182 -98t-62 -287z" />
<glyph unicode="r" d="M186 -12v1071l123 12v-182q81 99 149 142.5t140 43.5q55 0 108.5 -19.5t104.5 -58.5l-47 -110q-65 41 -107.5 57.5t-78.5 16.5q-63 0 -127 -48t-142 -153v-760z" />
<glyph unicode="s" d="M55 289l115 30q17 -105 82 -161t172 -56q99 0 154 47.5t55 131.5q0 73 -46 117t-192 94q-165 55 -232 124t-67 179q0 118 89 196t225 78q124 0 210 -69t121 -197l-110 -41q-33 97 -90.5 144.5t-143.5 47.5q-80 0 -129 -40.5t-49 -106.5q0 -45 24 -85.5t66 -66.5 q29 -17 115 -46.5t135 -51.5q103 -47 149 -111t46 -161q0 -132 -92 -215.5t-240 -83.5q-152 0 -244.5 76.5t-122.5 226.5z" />
<glyph unicode="t" d="M98 942l15 117h170v213l123 12v-225h342l-13 -117h-329v-661q0 -86 41.5 -133.5t115.5 -47.5q40 0 75.5 12.5t68.5 37.5l61 -89q-47 -38 -97.5 -56.5t-109.5 -18.5q-143 0 -210.5 80t-67.5 249v627h-185z" />
<glyph unicode="u" d="M70 369v690l123 14v-665q0 -186 39 -247t139 -61q64 0 133 42t121 114v803l123 14v-1073l-123 -12v139q-73 -71 -146.5 -107t-144.5 -36q-138 0 -201 91t-63 294z" />
<glyph unicode="v" d="M6 1059l115 12l301 -817l283 817l110 -12l-369 -1059h-43z" />
<glyph unicode="w" d="M-2 1059l119 12l88 -754l207 582l209 -582l88 754l114 -12l-155 -1059h-47l-209 637l-211 -637h-47z" />
<glyph unicode="x" d="M2 0l342 535l-338 524l123 12l281 -436l280 436l121 -12l-336 -522l344 -537l-123 -12l-286 446l-287 -446z" />
<glyph unicode="y" d="M43 1059l111 12l282 -840l266 840l109 -12l-301 -944q-44 -135 -112.5 -202t-164.5 -67q-43 0 -79.5 11.5t-63.5 33.5l64 82q17 -6 32.5 -9t28.5 -3q58 0 97.5 28t62.5 87z" />
<glyph unicode="z" d="M63 29l531 915h-481l14 115h635l12 -27l-530 -919h514l-13 -113h-669z" />
<glyph unicode="{" d="M256 487v160q73 18 99 51t26 154v12v219q0 192 51 263t178 71h23v-112q-81 -2 -105 -20t-24 -97v-291q0 -160 -28 -222.5t-97 -107.5q68 -49 96.5 -115t28.5 -219v-40v-244q0 -80 25 -99t103 -20l1 -111h-23q-127 0 -178 71.5t-51 260.5v234q0 120 -25.5 152t-99.5 50z " />
<glyph unicode="|" d="M362 -389v1644h97v-1644h-97z" />
<glyph unicode="}" d="M205 -170q80 2 104.5 21t24.5 98v289q0 160 28 223.5t97 107.5q-68 51 -96.5 115.5t-28.5 206.5v51v246q0 78 -24.5 96.5t-104.5 20.5v112h22q127 0 178.5 -72t51.5 -262v-231q0 -118 25.5 -151t99.5 -52v-162q-74 -18 -99.5 -50t-25.5 -152v-13v-221q0 -189 -51 -260.5 t-179 -71.5h-22v111z" />
<glyph unicode="~" d="M66 449v116q54 37 103 55.5t91 18.5q55 0 156.5 -35t146.5 -35q43 0 91 20.5t104 61.5v-119q-53 -35 -102 -53t-91 -18q-53 0 -155 33.5t-154 33.5q-39 0 -87.5 -20t-102.5 -59z" />
<glyph unicode="&#xa0;" />
<glyph unicode="&#xa1;" d="M324 1047v276h174v-276h-174zM332 0l33 891h94l30 -891h-157z" />
<glyph unicode="&#xa2;" d="M61 666q0 164 82.5 266t231.5 121v280l96 13v-295q86 -16 154.5 -55.5t117.5 -102.5l-86 -64q-64 56 -121.5 81.5t-115.5 25.5q-101 0 -165.5 -74.5t-64.5 -195.5q0 -123 63.5 -197t166.5 -74q58 0 115 25.5t122 81.5l86 -64q-49 -63 -117.5 -102t-154.5 -53v-283 l-96 -12v291q-153 23 -233.5 122t-80.5 265z" />
<glyph unicode="&#xa3;" d="M2 102q110 84 161.5 182t51.5 224q0 34 -12 122q-3 21 -4 31l-156 1l14 112h127q-9 71 -13.5 126.5t-4.5 96.5q0 169 81 259t232 90q118 0 189 -72t71 -193v-4h-116q-14 78 -54 115t-108 37q-85 0 -128.5 -53t-43.5 -154q0 -47 15 -209q2 -25 3 -38l248 -1l-12 -112 l-215 -1q5 -65 7.5 -106t2.5 -68q0 -81 -24 -151t-82 -155q26 2 44.5 3.5t26.5 1.5q65 0 149.5 -37.5t120.5 -37.5q65 0 94 47t29 151v23h112q2 -9 2.5 -19t0.5 -28q0 -145 -69 -222t-199 -77q-68 0 -159.5 43t-127.5 43q-45 0 -85.5 -17t-84.5 -55z" />
<glyph unicode="&#xa4;" d="M-8 469l22 96h115q-1 17 -1.5 37.5t-0.5 63.5q0 45 0.5 67.5t1.5 40.5h-131l22 96h113q8 116 30 197.5t60 136.5q47 68 117.5 105t153.5 37q109 0 190 -59t123 -169l-111 -59q-34 89 -81.5 128.5t-120.5 39.5q-110 0 -163.5 -81t-68.5 -276h389l-22 -96h-373 q-1 -18 -1.5 -40t-0.5 -68q0 -43 0.5 -63.5t2.5 -37.5h323l-23 -96h-297q17 -200 71 -282.5t163 -82.5q73 0 126.5 45t102.5 150l102 -57q-54 -130 -135.5 -192t-195.5 -62q-83 0 -153.5 36.5t-117.5 102.5q-39 57 -61 140.5t-29 201.5h-141z" />
<glyph unicode="&#xa5;" d="M2 1333l115 13l295 -637l295 637l112 -13l-151 -327h133v-97h-176l-113 -237h289v-97h-328v-575l-123 -12v587h-319v97h276l-110 237h-166v97h121z" />
<glyph unicode="&#xa6;" d="M362 -283v611h97v-611h-97zM362 541v608h97v-608h-97z" />
<glyph unicode="&#xa7;" d="M106 616q0 85 35.5 146t118.5 121q-58 53 -84 102.5t-26 104.5q0 104 76.5 175.5t191.5 71.5q103 0 166.5 -47.5t89.5 -144.5l-107 -43q-17 63 -56.5 97t-94.5 34q-60 0 -100 -35.5t-40 -89.5q0 -48 26 -85.5t99 -86.5l152 -98q84 -56 123 -117.5t39 -138.5 q0 -74 -41 -140.5t-115 -109.5q56 -49 82.5 -98.5t26.5 -106.5q0 -105 -76 -176.5t-189 -71.5q-102 0 -167.5 49t-90.5 144l105 43q18 -65 57 -98t96 -33q60 0 101 38t41 93q0 45 -28 82.5t-99 83.5l-152 98q-81 53 -120.5 111.5t-39.5 125.5zM229 645q0 -54 27.5 -95 t108.5 -93l106 -68q54 26 86.5 77t32.5 107q0 52 -26.5 91.5t-110.5 95.5l-107 69q-55 -29 -86 -78t-31 -106z" />
<glyph unicode="&#xa8;" d="M190 1233v172h148v-172h-148zM485 1233v172h148v-172h-148z" />
<glyph unicode="&#xa9;" d="M6 551q0 169 118.5 287t287.5 118q168 0 286.5 -118.5t118.5 -286.5t-118.5 -288t-286.5 -120q-169 0 -287.5 119t-118.5 289zM63 551q0 -146 101 -247t246 -101q144 0 246 102t102 246t-101.5 245t-244.5 101q-145 0 -247 -101t-102 -245zM231 549q0 144 46.5 220.5 t134.5 76.5q69 0 110 -41.5t47 -118.5l-84 -8q-8 47 -25.5 67.5t-47.5 20.5q-45 0 -67.5 -54t-22.5 -161q0 -112 23.5 -163.5t74.5 -51.5q29 0 46 17.5t30 62.5l75 -21q-15 -69 -53.5 -104t-99.5 -35q-91 0 -139 75.5t-48 217.5z" />
<glyph unicode="&#xaa;" d="M74 899q0 208 83 322t234 114q57 0 113.5 -18.5t109.5 -54.5v59l113 12v-854l-113 -12v82q-57 -45 -107.5 -64.5t-105.5 -19.5q-155 0 -241 114t-86 320zM186 903q0 -169 57.5 -251.5t174.5 -82.5q44 0 87 16t109 60v510q-71 44 -117.5 61t-90.5 17q-106 0 -163 -85.5 t-57 -244.5z" />
<glyph unicode="&#xab;" d="M154 528l163 336h103l-139 -336l139 -335h-103zM406 528l161 336h103l-140 -336l140 -335h-103z" />
<glyph unicode="&#xac;" d="M63 621v110h695v-362h-115v252h-580z" />
<glyph unicode="&#xad;" d="M109 485v109h606v-109h-606z" />
<glyph unicode="&#xae;" d="M6 551q0 169 118.5 287t287.5 118q168 0 286.5 -118.5t118.5 -286.5t-118.5 -288t-286.5 -120q-169 0 -287.5 119t-118.5 289zM63 551q0 -146 101 -247t246 -101q144 0 246 102t102 246t-101.5 245t-244.5 101q-145 0 -247 -101t-102 -245zM268 326v469h129 q87 0 129.5 -35t42.5 -105q0 -44 -20 -76t-64 -55l113 -198h-96l-96 184h-54v-184h-84zM352 571h45q40 0 61 22.5t21 63.5q0 36 -20.5 54t-61.5 18h-45v-158z" />
<glyph unicode="&#xaf;" d="M174 1262v114h475v-114h-475z" />
<glyph unicode="&#xb0;" d="M133 1069q0 118 80 197.5t199 79.5t198.5 -79.5t79.5 -199.5q0 -114 -81.5 -195t-196.5 -81q-117 0 -198 81t-81 197zM246 1067q0 -68 48.5 -116t117.5 -48q68 0 115.5 48t47.5 116q0 72 -46 119t-117 47q-73 0 -119.5 -47t-46.5 -119z" />
<glyph unicode="&#xb1;" d="M61 207v108h703v-108h-703zM61 721v108h295v295h113v-295h295v-108h-295v-295h-113v295h-295z" />
<glyph unicode="&#xb2;" d="M80 1094q51 130 132.5 191t203.5 61q141 0 226 -61.5t85 -162.5q0 -125 -343 -467q-94 -94 -146 -147h495l-12 -105h-625v105q337 324 425.5 431.5t88.5 164.5q0 61 -51.5 97t-140.5 36q-86 0 -143 -41.5t-109 -144.5z" />
<glyph unicode="&#xb3;" d="M72 1231l12 104h621l12 -104l-334 -238h6q144 0 236 -73t92 -185q0 -145 -166 -242.5t-428 -97.5h-21l-12 101h35q213 0 342 67.5t129 175.5q0 77 -70.5 126.5t-181.5 49.5q-24 0 -51.5 -2t-71.5 -7l-26 73l342 252h-465z" />
<glyph unicode="&#xb4;" d="M285 1174l192 319h164l-258 -319h-98z" />
<glyph unicode="&#xb5;" d="M-63 -315l239 1122h125l-119 -551q-3 -13 -4.5 -31t-1.5 -41q0 -36 23.5 -59t60.5 -23q94 0 169 107t116 299l63 299h123l-119 -557q-6 -32 -8 -49t-2 -31q0 -33 19.5 -48.5t60.5 -15.5q4 0 12 1.5t13 1.5l-23 -107q-10 0 -30 -3t-29 -3q-74 0 -111 29t-37 86q0 4 1 12 t3 22q-59 -74 -117 -111.5t-114 -37.5q-34 0 -62 14t-51 41l-78 -366h-122z" />
<glyph unicode="&#xb6;" d="M74 934q0 172 82.5 280.5t214.5 108.5h366v-104h-80v-1323h-122v1323h-91v-1323h-122v737h-21q-105 0 -166 81t-61 220z" />
<glyph unicode="&#xb7;" d="M285 680q0 52 37 88.5t90 36.5q52 0 89.5 -36.5t37.5 -88.5q0 -54 -37 -90.5t-90 -36.5q-55 0 -91 36t-36 91z" />
<glyph unicode="&#xb8;" d="M215 -307q75 -18 131 -26.5t94 -8.5q58 0 85.5 19t27.5 59q0 46 -30 68t-93 22q-15 0 -26.5 -0.5t-24.5 -1.5v176h65v-96h21q101 0 155 -42.5t54 -121.5q0 -82 -57.5 -124t-170.5 -42q-46 0 -104 9.5t-127 27.5v82z" />
<glyph unicode="&#xb9;" d="M123 403l12 105h246v715l-205 -45l-31 96l314 72l37 -35v-803h243l-12 -105h-604z" />
<glyph unicode="&#xba;" d="M74 899q0 216 85 325t253 109q169 0 253.5 -108.5t84.5 -325.5q0 -215 -85 -323.5t-253 -108.5q-169 0 -253.5 108.5t-84.5 323.5zM188 899q0 -166 55 -246t169 -80t168.5 79.5t54.5 246.5t-55 247.5t-168 80.5q-114 0 -169 -80.5t-55 -247.5z" />
<glyph unicode="&#xbb;" d="M154 193l139 335l-139 336h102l164 -336l-164 -335h-102zM406 193l137 335l-137 336h102l162 -336l-162 -335h-102z" />
<glyph unicode="&#xbc;" d="M0 332l786 348l35 -100l-786 -351zM51 606l12 99h193v526l-162 -37l-28 92l249 57l33 -32v-606h187l-13 -99h-471zM215 -266l145 565l105 -14l-117 -453h225v338l113 14v-352h80l-12 -98h-68v-164l-113 -10v174h-358z" />
<glyph unicode="&#xbd;" d="M0 332l786 348l35 -100l-786 -351zM51 606l12 99h193v526l-162 -37l-28 92l249 57l33 -32v-606h187l-13 -99h-471zM219 76q36 117 103 170t178 53q113 0 182.5 -51.5t69.5 -134.5q0 -94 -194 -284q-106 -104 -167 -171h365l-13 -98h-503v86q87 98 228 240 q169 171 169 220q0 42 -37.5 67.5t-99.5 25.5q-64 0 -104.5 -32.5t-71.5 -109.5z" />
<glyph unicode="&#xbe;" d="M0 332l786 348l35 -100l-786 -351zM96 1247l13 99h481l12 -93l-217 -166q96 -11 155.5 -69.5t59.5 -138.5q0 -118 -128 -194.5t-335 -76.5h-14l-14 99h34q165 0 263 47.5t98 124.5q0 55 -51.5 87.5t-139.5 32.5q-31 0 -90 -7l-6 -1l-24 64l243 192h-340zM215 -266 l145 565l105 -14l-117 -453h225v338l113 14v-352h80l-12 -98h-68v-164l-113 -10v174h-358z" />
<glyph unicode="&#xbf;" d="M47 322q0 86 39 156.5t145 166.5q9 8 26 22q101 85 101 185v37h131v-51q0 -70 -19 -116.5t-62 -84.5q-20 -18 -57 -49q-177 -153 -177 -273q0 -99 59.5 -156t163.5 -57q116 0 185.5 63.5t111.5 209.5l111 -21q-21 -172 -126 -269t-267 -97q-169 0 -267 89.5t-98 244.5z M340 1047v276h174v-276h-174z" />
<glyph unicode="&#xc0;" d="M6 0l320 1323l153 14l332 -1337l-119 -12l-82 364h-403l-82 -364zM180 1759h166l191 -319h-97zM229 465h353l-176 723z" />
<glyph unicode="&#xc1;" d="M6 0l320 1323l153 14l332 -1337l-119 -12l-82 364h-403l-82 -364zM229 465h353l-176 723zM285 1440l192 319h164l-258 -319h-98z" />
<glyph unicode="&#xc2;" d="M6 0l320 1323l153 14l332 -1337l-119 -12l-82 364h-403l-82 -364zM147 1440l183 319h164l180 -319h-99l-163 223l-166 -223h-99zM229 465h353l-176 723z" />
<glyph unicode="&#xc3;" d="M6 0l320 1323l153 14l332 -1337l-119 -12l-82 364h-403l-82 -364zM143 1491q20 85 66.5 129.5t116.5 44.5q12 0 25 -2.5t29 -7.5l73 -25q12 -4 26 -6t29 -2q32 0 55 15.5t35 45.5h80q-23 -85 -69.5 -129.5t-112.5 -44.5q-14 0 -29 2.5t-32 7.5l-73 23q-15 5 -27.5 7.5 t-21.5 2.5q-31 0 -53 -15t-37 -46h-80zM229 465h353l-176 723z" />
<glyph unicode="&#xc4;" d="M6 0l320 1323l153 14l332 -1337l-119 -12l-82 364h-403l-82 -364zM190 1499v172h148v-172h-148zM229 465h353l-176 723zM485 1499v172h148v-172h-148z" />
<glyph unicode="&#xc5;" d="M6 0l320 1323l153 14l332 -1337l-119 -12l-82 364h-403l-82 -364zM184 1608q0 95 66.5 162t161.5 67q94 0 160.5 -67t66.5 -162q0 -96 -65.5 -162t-161.5 -66t-162 66t-66 162zM229 465h353l-176 723zM281 1608q0 -56 37.5 -93.5t93.5 -37.5q55 0 93 37.5t38 93.5 q0 53 -39 92t-92 39q-55 0 -93 -38.5t-38 -92.5z" />
<glyph unicode="&#xc6;" d="M-43 0l360 1323h457l12 -113h-297v-446h216l-13 -113h-203v-538h318l-12 -113h-418v352h-217l-94 -364zM188 465h189v749z" />
<glyph unicode="&#xc7;" d="M68 662q0 218 22.5 339.5t73.5 194.5q45 65 120.5 103t159.5 38q112 0 197.5 -59.5t126.5 -167.5l-111 -59q-32 85 -84.5 126.5t-128.5 41.5q-135 0 -193 -125t-58 -432q0 -308 58 -433t193 -125q77 0 135 47t105 148l102 -57q-53 -127 -138.5 -190.5t-203.5 -63.5 q-84 0 -159.5 37.5t-120.5 101.5q-51 73 -73.5 194.5t-22.5 340.5zM260 -307q75 -18 131 -26.5t94 -8.5q58 0 85.5 19t27.5 59q0 46 -30 68t-93 22q-15 0 -26.5 -0.5t-24.5 -1.5v176h65v-96h21q101 0 155 -42.5t54 -121.5q0 -82 -57.5 -124t-170.5 -42q-46 0 -104 9.5 t-127 27.5v82z" />
<glyph unicode="&#xc8;" d="M92 0v1323h637l14 -113h-528v-446h399l-12 -113h-387v-538h573l-14 -113h-682zM217 1759h166l191 -319h-97z" />
<glyph unicode="&#xc9;" d="M92 0v1323h637l14 -113h-528v-446h399l-12 -113h-387v-538h573l-14 -113h-682zM322 1440l192 319h164l-258 -319h-98z" />
<glyph unicode="&#xca;" d="M92 0v1323h637l14 -113h-528v-446h399l-12 -113h-387v-538h573l-14 -113h-682zM184 1440l183 319h164l180 -319h-99l-163 223l-166 -223h-99z" />
<glyph unicode="&#xcb;" d="M92 0v1323h637l14 -113h-528v-446h399l-12 -113h-387v-538h573l-14 -113h-682zM227 1499v172h148v-172h-148zM522 1499v172h148v-172h-148z" />
<glyph unicode="&#xcc;" d="M172 0l12 115h166v1095h-178l12 113h467l-12 -113h-166v-1095h178l-12 -115h-467zM180 1759h166l191 -319h-97z" />
<glyph unicode="&#xcd;" d="M172 0l12 115h166v1095h-178l12 113h467l-12 -113h-166v-1095h178l-12 -115h-467zM285 1440l192 319h164l-258 -319h-98z" />
<glyph unicode="&#xce;" d="M147 1440l183 319h164l180 -319h-99l-163 223l-166 -223h-99zM172 0l12 115h166v1095h-178l12 113h467l-12 -113h-166v-1095h178l-12 -115h-467z" />
<glyph unicode="&#xcf;" d="M172 0l12 115h166v1095h-178l12 113h467l-12 -113h-166v-1095h178l-12 -115h-467zM190 1499v172h148v-172h-148zM485 1499v172h148v-172h-148z" />
<glyph unicode="&#xd0;" d="M14 641v96h140v473h-123l12 113h270q252 0 346.5 -131t94.5 -530q0 -392 -104 -527t-376 -135h-231l-12 115h123v526h-140zM276 115h48q77 0 136 24.5t97 73.5q38 48 54 130t16 319q0 209 -11 289t-36 126q-37 66 -102 99.5t-154 33.5h-48v-473h201v-96h-201v-526z" />
<glyph unicode="&#xd1;" d="M68 -12v1335l178 14l389 -1063v1049l119 14v-1337l-123 -12l-445 1194v-1182zM143 1491q20 85 66.5 129.5t116.5 44.5q12 0 25 -2.5t29 -7.5l73 -25q12 -4 26 -6t29 -2q32 0 55 15.5t35 45.5h80q-23 -85 -69.5 -129.5t-112.5 -44.5q-14 0 -29 2.5t-32 7.5l-73 23 q-15 5 -27.5 7.5t-21.5 2.5q-31 0 -53 -15t-37 -46h-80z" />
<glyph unicode="&#xd2;" d="M35 662q0 217 22.5 338.5t73.5 195.5q45 65 120.5 103t160.5 38q84 0 158.5 -37.5t119.5 -103.5q53 -75 75.5 -205t22.5 -370q0 -328 -91 -480.5t-285 -152.5q-86 0 -161 37t-120 102q-51 73 -73.5 194t-22.5 341zM160 662q0 -310 58 -434t194 -124q135 0 193.5 125.5 t58.5 432.5q0 306 -58.5 431.5t-193.5 125.5q-136 0 -194 -124t-58 -433zM180 1759h166l191 -319h-97z" />
<glyph unicode="&#xd3;" d="M35 662q0 217 22.5 338.5t73.5 195.5q45 65 120.5 103t160.5 38q84 0 158.5 -37.5t119.5 -103.5q53 -75 75.5 -205t22.5 -370q0 -328 -91 -480.5t-285 -152.5q-86 0 -161 37t-120 102q-51 73 -73.5 194t-22.5 341zM160 662q0 -310 58 -434t194 -124q135 0 193.5 125.5 t58.5 432.5q0 306 -58.5 431.5t-193.5 125.5q-136 0 -194 -124t-58 -433zM285 1440l192 319h164l-258 -319h-98z" />
<glyph unicode="&#xd4;" d="M35 662q0 217 22.5 338.5t73.5 195.5q45 65 120.5 103t160.5 38q84 0 158.5 -37.5t119.5 -103.5q53 -75 75.5 -205t22.5 -370q0 -328 -91 -480.5t-285 -152.5q-86 0 -161 37t-120 102q-51 73 -73.5 194t-22.5 341zM147 1440l183 319h164l180 -319h-99l-163 223l-166 -223 h-99zM160 662q0 -310 58 -434t194 -124q135 0 193.5 125.5t58.5 432.5q0 306 -58.5 431.5t-193.5 125.5q-136 0 -194 -124t-58 -433z" />
<glyph unicode="&#xd5;" d="M35 662q0 217 22.5 338.5t73.5 195.5q45 65 120.5 103t160.5 38q84 0 158.5 -37.5t119.5 -103.5q53 -75 75.5 -205t22.5 -370q0 -328 -91 -480.5t-285 -152.5q-86 0 -161 37t-120 102q-51 73 -73.5 194t-22.5 341zM143 1491q20 85 66.5 129.5t116.5 44.5q12 0 25 -2.5 t29 -7.5l73 -25q12 -4 26 -6t29 -2q32 0 55 15.5t35 45.5h80q-23 -85 -69.5 -129.5t-112.5 -44.5q-14 0 -29 2.5t-32 7.5l-73 23q-15 5 -27.5 7.5t-21.5 2.5q-31 0 -53 -15t-37 -46h-80zM160 662q0 -310 58 -434t194 -124q135 0 193.5 125.5t58.5 432.5q0 306 -58.5 431.5 t-193.5 125.5q-136 0 -194 -124t-58 -433z" />
<glyph unicode="&#xd6;" d="M35 662q0 217 22.5 338.5t73.5 195.5q45 65 120.5 103t160.5 38q84 0 158.5 -37.5t119.5 -103.5q53 -75 75.5 -205t22.5 -370q0 -328 -91 -480.5t-285 -152.5q-86 0 -161 37t-120 102q-51 73 -73.5 194t-22.5 341zM160 662q0 -310 58 -434t194 -124q135 0 193.5 125.5 t58.5 432.5q0 306 -58.5 431.5t-193.5 125.5q-136 0 -194 -124t-58 -433zM190 1499v172h148v-172h-148zM485 1499v172h148v-172h-148z" />
<glyph unicode="&#xd7;" d="M51 268l281 281l-281 280l80 80l281 -280l280 280l78 -80l-281 -280l281 -281l-78 -78l-280 281l-281 -281z" />
<glyph unicode="&#xd8;" d="M-70 -12l150 239q-23 62 -34 178.5t-11 288.5q0 337 90 490t287 153q81 0 153 -34.5t125 -100.5l84 135h105l-144 -229q26 -71 38.5 -180t12.5 -266q0 -365 -87.5 -519.5t-286.5 -154.5q-87 0 -159.5 37t-125.5 108l-92 -145h-105zM160 662q0 -77 3.5 -144t10.5 -137 l438 698q-30 69 -80.5 104.5t-119.5 35.5q-136 0 -194 -124t-58 -433zM205 256q34 -77 84.5 -114.5t122.5 -37.5q135 0 192.5 124.5t57.5 433.5q0 94 -4.5 172t-12.5 126z" />
<glyph unicode="&#xd9;" d="M78 377v946l123 14v-983q0 -134 49.5 -193t161.5 -59q110 0 159.5 59t49.5 193v969l122 14v-960q0 -206 -79 -297.5t-252 -91.5q-176 0 -255 91.5t-79 297.5zM180 1759h166l191 -319h-97z" />
<glyph unicode="&#xda;" d="M78 377v946l123 14v-983q0 -134 49.5 -193t161.5 -59q110 0 159.5 59t49.5 193v969l122 14v-960q0 -206 -79 -297.5t-252 -91.5q-176 0 -255 91.5t-79 297.5zM285 1440l192 319h164l-258 -319h-98z" />
<glyph unicode="&#xdb;" d="M78 377v946l123 14v-983q0 -134 49.5 -193t161.5 -59q110 0 159.5 59t49.5 193v969l122 14v-960q0 -206 -79 -297.5t-252 -91.5q-176 0 -255 91.5t-79 297.5zM147 1440l183 319h164l180 -319h-99l-163 223l-166 -223h-99z" />
<glyph unicode="&#xdc;" d="M78 377v946l123 14v-983q0 -134 49.5 -193t161.5 -59q110 0 159.5 59t49.5 193v969l122 14v-960q0 -206 -79 -297.5t-252 -91.5q-176 0 -255 91.5t-79 297.5zM190 1499v172h148v-172h-148zM485 1499v172h148v-172h-148z" />
<glyph unicode="&#xdd;" d="M2 1323l115 14l295 -628l295 628l114 -14l-348 -743v-580l-123 -12v585zM285 1440l192 319h164l-258 -319h-98z" />
<glyph unicode="&#xde;" d="M104 -12v1335l123 14v-295h144q221 0 328.5 -91.5t107.5 -280.5q0 -196 -109.5 -286.5t-347.5 -90.5h-123v-293zM227 408h105q194 0 271 60.5t77 201.5q0 78 -32.5 139t-90.5 92q-31 16 -78.5 22.5t-154.5 6.5h-97v-522z" />
<glyph unicode="&#xdf;" d="M70 -12v946q0 221 74.5 312t246.5 91q154 0 244 -84t90 -227q0 -108 -53 -181.5t-156 -109.5q134 -17 202 -109t68 -255q0 -179 -84 -281t-231 -102q-46 0 -94 14.5t-101 44.5l48 98q49 -23 87 -34t68 -11q89 0 137 70t48 201q0 146 -69 216.5t-212 72.5v116 q103 10 161 74.5t58 169.5q0 98 -55.5 152.5t-155.5 54.5q-103 0 -150.5 -52.5t-47.5 -164.5v-1010z" />
<glyph unicode="&#xe0;" d="M47 528q0 260 93.5 402.5t260.5 142.5q65 0 127 -23.5t121 -70.5v80l123 12v-1071l-123 -12v102q-64 -56 -119 -80t-116 -24q-174 0 -270.5 142.5t-96.5 399.5zM170 520q0 -209 65 -313.5t195 -104.5q52 0 100.5 21t118.5 76v657q-78 57 -130 78.5t-103 21.5 q-122 0 -184 -110t-62 -326zM243 1493h166l191 -319h-97z" />
<glyph unicode="&#xe1;" d="M47 528q0 260 93.5 402.5t260.5 142.5q65 0 127 -23.5t121 -70.5v80l123 12v-1071l-123 -12v102q-64 -56 -119 -80t-116 -24q-174 0 -270.5 142.5t-96.5 399.5zM170 520q0 -209 65 -313.5t195 -104.5q52 0 100.5 21t118.5 76v657q-78 57 -130 78.5t-103 21.5 q-122 0 -184 -110t-62 -326zM348 1174l192 319h164l-258 -319h-98z" />
<glyph unicode="&#xe2;" d="M47 528q0 260 93.5 402.5t260.5 142.5q65 0 127 -23.5t121 -70.5v80l123 12v-1071l-123 -12v102q-64 -56 -119 -80t-116 -24q-174 0 -270.5 142.5t-96.5 399.5zM170 520q0 -209 65 -313.5t195 -104.5q52 0 100.5 21t118.5 76v657q-78 57 -130 78.5t-103 21.5 q-122 0 -184 -110t-62 -326zM210 1174l183 319h164l180 -319h-99l-163 223l-166 -223h-99z" />
<glyph unicode="&#xe3;" d="M47 528q0 260 93.5 402.5t260.5 142.5q65 0 127 -23.5t121 -70.5v80l123 12v-1071l-123 -12v102q-64 -56 -119 -80t-116 -24q-174 0 -270.5 142.5t-96.5 399.5zM170 520q0 -209 65 -313.5t195 -104.5q52 0 100.5 21t118.5 76v657q-78 57 -130 78.5t-103 21.5 q-122 0 -184 -110t-62 -326zM206 1225q20 85 66.5 129.5t116.5 44.5q12 0 25 -2.5t29 -7.5l73 -25q12 -4 26 -6t29 -2q32 0 55 15.5t35 45.5h80q-23 -85 -69.5 -129.5t-112.5 -44.5q-14 0 -29 2.5t-32 7.5l-73 23q-15 5 -27.5 7.5t-21.5 2.5q-31 0 -53 -15t-37 -46h-80z" />
<glyph unicode="&#xe4;" d="M47 528q0 260 93.5 402.5t260.5 142.5q65 0 127 -23.5t121 -70.5v80l123 12v-1071l-123 -12v102q-64 -56 -119 -80t-116 -24q-174 0 -270.5 142.5t-96.5 399.5zM170 520q0 -209 65 -313.5t195 -104.5q52 0 100.5 21t118.5 76v657q-78 57 -130 78.5t-103 21.5 q-122 0 -184 -110t-62 -326zM253 1233v172h148v-172h-148zM548 1233v172h148v-172h-148z" />
<glyph unicode="&#xe5;" d="M47 528q0 260 93.5 402.5t260.5 142.5q65 0 127 -23.5t121 -70.5v80l123 12v-1071l-123 -12v102q-64 -56 -119 -80t-116 -24q-174 0 -270.5 142.5t-96.5 399.5zM170 520q0 -209 65 -313.5t195 -104.5q52 0 100.5 21t118.5 76v657q-78 57 -130 78.5t-103 21.5 q-122 0 -184 -110t-62 -326zM240 1343q0 96 66 162t161 66q96 0 162.5 -66.5t66.5 -161.5t-67 -162t-162 -67t-161 67t-66 162zM336 1341q0 -55 38 -93t93 -38q54 0 92.5 38.5t38.5 92.5q0 55 -38.5 93.5t-92.5 38.5q-55 0 -93 -38t-38 -94z" />
<glyph unicode="&#xe6;" d="M23 528q0 269 52 406t154 137q40 0 68.5 -19t48.5 -59v66l109 14v-84q18 39 49 60.5t69 21.5q113 0 170.5 -121t57.5 -358v-62h-348v-63q0 -180 32 -271.5t95 -91.5q41 0 72 44t59 141l84 -58q-29 -125 -80 -184t-131 -59q-44 0 -77 18.5t-54 54.5v-61l-107 -14v73 q-23 -41 -46 -57t-56 -16q-109 0 -165 137.5t-56 404.5zM137 522q0 -201 29 -310.5t82 -109.5q26 0 49.5 25.5t38.5 69.5v661q-22 46 -46 72t-44 26q-53 0 -81 -110.5t-28 -323.5zM455 645h227q-7 166 -33 237.5t-80 71.5t-84 -71.5t-30 -202.5v-35z" />
<glyph unicode="&#xe7;" d="M68 528q0 270 95 406.5t281 136.5q111 0 197.5 -57.5t132.5 -161.5l-100 -70q-49 95 -101.5 133.5t-128.5 38.5q-130 0 -192 -103t-62 -323q0 -218 62 -321t192 -103q77 0 132 39t104 127l94 -59q-47 -110 -131 -166.5t-199 -56.5q-187 0 -281.5 136t-94.5 404zM215 -307 q75 -18 131 -26.5t94 -8.5q58 0 85.5 19t27.5 59q0 46 -30 68t-93 22q-15 0 -26.5 -0.5t-24.5 -1.5v176h65v-96h21q101 0 155 -42.5t54 -121.5q0 -82 -57.5 -124t-170.5 -42q-46 0 -104 9.5t-127 27.5v82z" />
<glyph unicode="&#xe8;" d="M35 528q0 270 95 406.5t282 136.5q175 0 273.5 -126t98.5 -353v-62h-626v-10q0 -215 64 -315.5t200 -100.5q88 0 145 39.5t111 139.5l98 -50q-49 -119 -136 -182t-204 -63q-207 0 -304 130.5t-97 409.5zM162 645h499q-9 149 -74 229t-175 80t-174 -79t-76 -230zM180 1493 h166l191 -319h-97z" />
<glyph unicode="&#xe9;" d="M35 528q0 270 95 406.5t282 136.5q175 0 273.5 -126t98.5 -353v-62h-626v-10q0 -215 64 -315.5t200 -100.5q88 0 145 39.5t111 139.5l98 -50q-49 -119 -136 -182t-204 -63q-207 0 -304 130.5t-97 409.5zM162 645h499q-9 149 -74 229t-175 80t-174 -79t-76 -230zM285 1174 l192 319h164l-258 -319h-98z" />
<glyph unicode="&#xea;" d="M35 528q0 270 95 406.5t282 136.5q175 0 273.5 -126t98.5 -353v-62h-626v-10q0 -215 64 -315.5t200 -100.5q88 0 145 39.5t111 139.5l98 -50q-49 -119 -136 -182t-204 -63q-207 0 -304 130.5t-97 409.5zM147 1174l183 319h164l180 -319h-99l-163 223l-166 -223h-99z M162 645h499q-9 149 -74 229t-175 80t-174 -79t-76 -230z" />
<glyph unicode="&#xeb;" d="M35 528q0 270 95 406.5t282 136.5q175 0 273.5 -126t98.5 -353v-62h-626v-10q0 -215 64 -315.5t200 -100.5q88 0 145 39.5t111 139.5l98 -50q-49 -119 -136 -182t-204 -63q-207 0 -304 130.5t-97 409.5zM162 645h499q-9 149 -74 229t-175 80t-174 -79t-76 -230zM190 1233 v172h148v-172h-148zM485 1233v172h148v-172h-148z" />
<glyph unicode="&#xec;" d="M155 1493h166l191 -319h-97zM184 0l13 115h172v827h-185l13 117h295v-944h184l-14 -115h-478z" />
<glyph unicode="&#xed;" d="M184 0l13 115h172v827h-185l13 117h295v-944h184l-14 -115h-478zM260 1174l192 319h164l-258 -319h-98z" />
<glyph unicode="&#xee;" d="M122 1174l183 319h164l180 -319h-99l-163 223l-166 -223h-99zM184 0l13 115h172v827h-185l13 117h295v-944h184l-14 -115h-478z" />
<glyph unicode="&#xef;" d="M165 1233v172h148v-172h-148zM184 0l13 115h172v827h-185l13 117h295v-944h184l-14 -115h-478zM460 1233v172h148v-172h-148z" />
<glyph unicode="&#xf0;" d="M35 528q0 270 95 406.5t282 136.5q39 0 73 -7t68 -22q-17 43 -39.5 74t-52.5 55l-232 -77l-39 71l197 66q-28 22 -154 90l-3 2h198q20 -10 38 -22t36 -27l219 69l41 -69l-178 -64q93 -88 147.5 -270.5t54.5 -411.5q0 -269 -94 -404.5t-280 -135.5q-188 0 -282.5 136 t-94.5 404zM158 528q0 -217 62 -320.5t192 -103.5q129 0 190.5 103t61.5 321q0 219 -61.5 322.5t-190.5 103.5q-130 0 -192 -104t-62 -322z" />
<glyph unicode="&#xf1;" d="M74 -12v1071l123 12v-137q72 69 146 105t144 36q138 0 201.5 -92t63.5 -293v-690l-123 -12v665q0 183 -39.5 245.5t-138.5 62.5q-64 0 -133 -43t-121 -115v-803zM143 1225q20 85 66.5 129.5t116.5 44.5q12 0 25 -2.5t29 -7.5l73 -25q12 -4 26 -6t29 -2q32 0 55 15.5 t35 45.5h80q-23 -85 -69.5 -129.5t-112.5 -44.5q-14 0 -29 2.5t-32 7.5l-73 23q-15 5 -27.5 7.5t-21.5 2.5q-31 0 -53 -15t-37 -46h-80z" />
<glyph unicode="&#xf2;" d="M35 528q0 270 95 406.5t282 136.5q186 0 280 -136.5t94 -406.5q0 -269 -94 -404.5t-280 -135.5q-188 0 -282.5 136t-94.5 404zM158 528q0 -217 62 -320.5t192 -103.5q129 0 190.5 103t61.5 321q0 219 -61.5 322.5t-190.5 103.5q-130 0 -192 -104t-62 -322zM180 1493h166 l191 -319h-97z" />
<glyph unicode="&#xf3;" d="M35 528q0 270 95 406.5t282 136.5q186 0 280 -136.5t94 -406.5q0 -269 -94 -404.5t-280 -135.5q-188 0 -282.5 136t-94.5 404zM158 528q0 -217 62 -320.5t192 -103.5q129 0 190.5 103t61.5 321q0 219 -61.5 322.5t-190.5 103.5q-130 0 -192 -104t-62 -322zM285 1174 l192 319h164l-258 -319h-98z" />
<glyph unicode="&#xf4;" d="M35 528q0 270 95 406.5t282 136.5q186 0 280 -136.5t94 -406.5q0 -269 -94 -404.5t-280 -135.5q-188 0 -282.5 136t-94.5 404zM147 1174l183 319h164l180 -319h-99l-163 223l-166 -223h-99zM158 528q0 -217 62 -320.5t192 -103.5q129 0 190.5 103t61.5 321 q0 219 -61.5 322.5t-190.5 103.5q-130 0 -192 -104t-62 -322z" />
<glyph unicode="&#xf5;" d="M35 528q0 270 95 406.5t282 136.5q186 0 280 -136.5t94 -406.5q0 -269 -94 -404.5t-280 -135.5q-188 0 -282.5 136t-94.5 404zM143 1225q20 85 66.5 129.5t116.5 44.5q12 0 25 -2.5t29 -7.5l73 -25q12 -4 26 -6t29 -2q32 0 55 15.5t35 45.5h80q-23 -85 -69.5 -129.5 t-112.5 -44.5q-14 0 -29 2.5t-32 7.5l-73 23q-15 5 -27.5 7.5t-21.5 2.5q-31 0 -53 -15t-37 -46h-80zM158 528q0 -217 62 -320.5t192 -103.5q129 0 190.5 103t61.5 321q0 219 -61.5 322.5t-190.5 103.5q-130 0 -192 -104t-62 -322z" />
<glyph unicode="&#xf6;" d="M35 528q0 270 95 406.5t282 136.5q186 0 280 -136.5t94 -406.5q0 -269 -94 -404.5t-280 -135.5q-188 0 -282.5 136t-94.5 404zM158 528q0 -217 62 -320.5t192 -103.5q129 0 190.5 103t61.5 321q0 219 -61.5 322.5t-190.5 103.5q-130 0 -192 -104t-62 -322zM190 1233v172 h148v-172h-148zM485 1233v172h148v-172h-148z" />
<glyph unicode="&#xf7;" d="M63 496v112h695v-112h-695zM328 299q0 35 24.5 59.5t59.5 24.5q33 0 58.5 -25.5t25.5 -58.5q0 -34 -25 -59t-59 -25q-36 0 -60 24.5t-24 59.5zM328 803q0 35 25 60.5t59 25.5q33 0 58.5 -26t25.5 -60t-25.5 -59t-58.5 -25q-35 0 -59.5 24.5t-24.5 59.5z" />
<glyph unicode="&#xf8;" d="M-63 -12l153 198q-29 74 -42 151.5t-13 190.5q0 270 95 406.5t282 136.5q79 0 148 -30t114 -85l86 115h119l-148 -192q29 -66 42 -150.5t13 -200.5q0 -269 -94 -404.5t-280 -135.5q-81 0 -149 29.5t-118 86.5l-90 -116h-118zM158 528q0 -65 5.5 -123.5t14.5 -101.5 l418 551q-24 47 -72.5 73.5t-111.5 26.5q-130 0 -192 -104t-62 -322zM221 205q45 -56 88.5 -79.5t102.5 -23.5q129 0 190.5 104t61.5 322q0 76 -5.5 133.5t-15.5 100.5z" />
<glyph unicode="&#xf9;" d="M70 369v690l123 14v-665q0 -186 39 -247t139 -61q64 0 133 42t121 114v803l123 14v-1073l-123 -12v139q-73 -71 -146.5 -107t-144.5 -36q-138 0 -201 91t-63 294zM203 1493h166l191 -319h-97z" />
<glyph unicode="&#xfa;" d="M70 369v690l123 14v-665q0 -186 39 -247t139 -61q64 0 133 42t121 114v803l123 14v-1073l-123 -12v139q-73 -71 -146.5 -107t-144.5 -36q-138 0 -201 91t-63 294zM308 1174l192 319h164l-258 -319h-98z" />
<glyph unicode="&#xfb;" d="M70 369v690l123 14v-665q0 -186 39 -247t139 -61q64 0 133 42t121 114v803l123 14v-1073l-123 -12v139q-73 -71 -146.5 -107t-144.5 -36q-138 0 -201 91t-63 294zM170 1174l183 319h164l180 -319h-99l-163 223l-166 -223h-99z" />
<glyph unicode="&#xfc;" d="M70 369v690l123 14v-665q0 -186 39 -247t139 -61q64 0 133 42t121 114v803l123 14v-1073l-123 -12v139q-73 -71 -146.5 -107t-144.5 -36q-138 0 -201 91t-63 294zM213 1233v172h148v-172h-148zM508 1233v172h148v-172h-148z" />
<glyph unicode="&#xfd;" d="M43 1059l111 12l282 -840l266 840l109 -12l-301 -944q-44 -135 -112.5 -202t-164.5 -67q-43 0 -79.5 11.5t-63.5 33.5l64 82q17 -6 32.5 -9t28.5 -3q58 0 97.5 28t62.5 87zM285 1174l192 319h164l-258 -319h-98z" />
<glyph unicode="&#xfe;" d="M63 -143v1466l123 14v-352q62 44 123.5 66t122.5 22q169 0 262.5 -131.5t93.5 -372.5q0 -240 -96 -371.5t-270 -131.5q-62 0 -117.5 22.5t-118.5 73.5v-293zM186 268q77 -51 123.5 -68.5t96.5 -17.5q132 0 196 95.5t64 291.5q0 188 -63 286.5t-183 98.5 q-54 0 -106.5 -19.5t-127.5 -70.5v-596z" />
<glyph unicode="&#xff;" d="M43 1059l111 12l282 -840l266 840l109 -12l-301 -944q-44 -135 -112.5 -202t-164.5 -67q-43 0 -79.5 11.5t-63.5 33.5l64 82q17 -6 32.5 -9t28.5 -3q58 0 97.5 28t62.5 87zM190 1233v172h148v-172h-148zM485 1233v172h148v-172h-148z" />
<glyph unicode="&#x152;" d="M51 662q0 356 72 513.5t231 157.5q18 0 34.5 -2t40.5 -8h355l13 -113h-254v-446h180l-12 -113h-168v-538h276l-12 -113h-378q-31 -5 -46.5 -6.5t-30.5 -1.5q-158 0 -229.5 156.5t-71.5 513.5zM176 662q0 -307 46 -432.5t153 -125.5q10 0 24.5 2t28.5 5v1101 q-17 3 -31.5 5t-21.5 2q-107 0 -153 -125.5t-46 -431.5z" />
<glyph unicode="&#x153;" d="M27 532q0 269 53.5 404t161.5 135q60 0 100 -42t61 -130q22 79 68 125.5t100 46.5q112 0 169 -121.5t57 -357.5v-62h-344v-47q0 -185 31.5 -282t93.5 -97q39 0 70 44.5t59 140.5l86 -58q-28 -123 -80 -183t-131 -60q-65 0 -113.5 44t-65.5 118q-24 -81 -64.5 -121.5 t-96.5 -40.5q-109 0 -162 135t-53 409zM145 532q0 -207 25.5 -317.5t73.5 -110.5q47 0 71.5 109.5t24.5 318.5q0 207 -24.5 314.5t-71.5 107.5q-48 0 -73.5 -108.5t-25.5 -313.5zM455 645h222q-2 146 -31.5 227.5t-78.5 81.5q-50 0 -81 -83.5t-31 -225.5z" />
<glyph unicode="&#x178;" d="M2 1323l115 14l295 -628l295 628l114 -14l-348 -743v-580l-123 -12v585zM190 1499v172h148v-172h-148zM485 1499v172h148v-172h-148z" />
<glyph unicode="&#x2c6;" d="M147 1174l183 319h164l180 -319h-99l-163 223l-166 -223h-99z" />
<glyph unicode="&#x2dc;" d="M143 1225q20 85 66.5 129.5t116.5 44.5q12 0 25 -2.5t29 -7.5l73 -25q12 -4 26 -6t29 -2q32 0 55 15.5t35 45.5h80q-23 -85 -69.5 -129.5t-112.5 -44.5q-14 0 -29 2.5t-32 7.5l-73 23q-15 5 -27.5 7.5t-21.5 2.5q-31 0 -53 -15t-37 -46h-80z" />
<glyph unicode="&#x2000;" horiz-adv-x="918" />
<glyph unicode="&#x2001;" horiz-adv-x="1837" />
<glyph unicode="&#x2002;" horiz-adv-x="918" />
<glyph unicode="&#x2003;" horiz-adv-x="1837" />
<glyph unicode="&#x2004;" horiz-adv-x="612" />
<glyph unicode="&#x2005;" horiz-adv-x="459" />
<glyph unicode="&#x2006;" horiz-adv-x="306" />
<glyph unicode="&#x2007;" horiz-adv-x="306" />
<glyph unicode="&#x2008;" horiz-adv-x="229" />
<glyph unicode="&#x2009;" horiz-adv-x="367" />
<glyph unicode="&#x200a;" horiz-adv-x="102" />
<glyph unicode="&#x2010;" d="M109 485v109h606v-109h-606z" />
<glyph unicode="&#x2011;" d="M109 485v109h606v-109h-606z" />
<glyph unicode="&#x2012;" d="M109 485v109h606v-109h-606z" />
<glyph unicode="&#x2013;" d="M-59 500v80h940v-80h-940z" />
<glyph unicode="&#x2014;" d="M0 500v80h821v-80h-821z" />
<glyph unicode="&#x2018;" d="M244 807l186 530l166 -57l-190 -528z" />
<glyph unicode="&#x2019;" d="M244 807l186 530l166 -57l-190 -528z" />
<glyph unicode="&#x201a;" d="M199 -147l186 528l166 -55l-189 -531z" />
<glyph unicode="&#x201c;" d="M76 807l186 530l164 -57l-188 -528zM428 807l186 530l164 -57l-188 -528z" />
<glyph unicode="&#x201d;" d="M76 807l186 530l164 -57l-188 -528zM428 807l186 530l164 -57l-188 -528z" />
<glyph unicode="&#x201e;" d="M27 -147l186 528l164 -55l-187 -531zM379 -147l186 528l164 -55l-186 -531z" />
<glyph unicode="&#x2022;" d="M283 551q0 52 37.5 89.5t91.5 37.5q53 0 90 -36.5t37 -90.5q0 -53 -38 -91t-91 -38q-52 0 -89.5 38t-37.5 91z" />
<glyph unicode="&#x2026;" d="M20 0v182h156v-182h-156zM334 0v182h155v-182h-155zM647 0v182h154v-182h-154z" />
<glyph unicode="&#x202f;" horiz-adv-x="367" />
<glyph unicode="&#x2039;" d="M279 528l161 336h103l-137 -336l137 -335h-103z" />
<glyph unicode="&#x203a;" d="M299 193l137 335l-137 336h102l162 -336l-162 -335h-102z" />
<glyph unicode="&#x205f;" horiz-adv-x="459" />
<glyph unicode="&#x20ac;" d="M-8 469l22 96h115q-1 17 -1.5 37.5t-0.5 63.5q0 45 0.5 67.5t1.5 40.5h-131l22 96h113q8 116 30 197.5t60 136.5q47 68 117.5 105t153.5 37q109 0 190 -59t123 -169l-111 -59q-34 89 -81.5 128.5t-120.5 39.5q-110 0 -163.5 -81t-68.5 -276h389l-22 -96h-373 q-1 -18 -1.5 -40t-0.5 -68q0 -43 0.5 -63.5t2.5 -37.5h323l-23 -96h-297q17 -200 71 -282.5t163 -82.5q73 0 126.5 45t102.5 150l102 -57q-54 -130 -135.5 -192t-195.5 -62q-83 0 -153.5 36.5t-117.5 102.5q-39 57 -61 140.5t-29 201.5h-141z" />
<glyph unicode="&#x2122;" d="M80 1020v80h205v-80h-58v-315h-90v315h-57zM344 705v395h107l94 -252l92 252h106v-395h-81v268l-97 -268h-41l-98 266v-266h-82z" />
<glyph unicode="&#x25fc;" horiz-adv-x="1070" d="M0 0v1070h1070v-1070h-1070z" />
</font>
</defs>
</svg>
